<svg width="135" height="28" viewBox="0 0 135 28" fill="none" xmlns="http://www.w3.org/2000/svg">
<path d="M83.6864 9.27656C84.0864 9.60112 84.4242 9.92525 84.7485 10.3256C84.7736 9.78161 84.7986 9.23759 84.8244 8.67709C85.8759 8.67709 86.9274 8.67709 88.0108 8.67709C88.016 10.288 88.0202 11.8989 88.0226 13.5098C88.0238 14.2579 88.0254 15.006 88.028 15.754C88.0303 16.4065 88.0317 17.059 88.0322 17.7115C88.0325 18.0566 88.0332 18.4017 88.0349 18.7467C88.0365 19.0724 88.0369 19.3982 88.0366 19.7239C88.0366 19.8425 88.0371 19.9612 88.038 20.0798C88.0501 21.7914 87.6634 23.4901 86.4395 24.7758C85.0186 26.1002 83.2915 26.4228 81.3998 26.3716C79.6815 26.2908 78.0492 25.8416 76.7824 24.6379C76.0705 23.8402 75.6302 22.8581 75.6444 21.7905C76.079 21.7719 76.5134 21.7583 76.9484 21.7493C77.0962 21.7455 77.2439 21.7404 77.3916 21.7339C78.625 21.6811 78.625 21.6811 78.9465 21.9517C79.0612 22.1449 79.1329 22.3302 79.2102 22.5398C79.798 23.199 80.6803 23.47 81.5434 23.5356C82.4737 23.556 83.2213 23.391 83.924 22.7719C84.6886 22.0015 84.7616 21.0287 84.7533 20.0014C84.7529 19.9213 84.7526 19.8411 84.7522 19.7585C84.7513 19.5616 84.7501 19.3647 84.7485 19.1678C84.7135 19.2149 84.6785 19.2621 84.6424 19.3106C83.9221 20.2442 82.9869 20.938 81.7897 21.1161C80.1432 21.2468 78.652 21 77.323 19.964C76.033 18.8559 75.2243 17.363 75.0915 15.6672C75.083 15.385 75.0822 15.1039 75.0849 14.8216C75.084 14.7279 75.0831 14.6343 75.0822 14.5377C75.0875 12.8658 75.6716 11.2903 76.8615 10.0879C78.5472 8.45791 81.6834 7.78213 83.6864 9.27656ZM79.1533 12.3301C78.3574 13.2858 78.2838 14.3839 78.3756 15.571C78.5332 16.4944 78.9969 17.2826 79.7614 17.8398C80.5594 18.3363 81.3181 18.5031 82.2449 18.3435C82.7765 18.217 83.1809 17.9993 83.6105 17.6691C83.6603 17.6315 83.7101 17.594 83.7614 17.5553C84.4522 16.9577 84.7781 15.9988 84.8404 15.1205C84.8742 14.0544 84.6451 13.0133 83.895 12.213C83.1259 11.5153 82.2836 11.2374 81.2542 11.2737C80.4312 11.3454 79.7145 11.7375 79.1533 12.3301Z" fill="#FDFDFF"/>
<path d="M123.82 9.27655C124.37 9.70242 124.841 10.1691 125.186 10.7752C125.381 10.5908 125.557 10.3975 125.731 10.1945C126.583 9.23839 127.631 8.60593 128.939 8.51404C130.417 8.44034 131.807 8.6564 132.948 9.66527C133.868 10.5213 134.373 11.6889 134.456 12.9302C134.46 13.1448 134.461 13.359 134.459 13.5737C134.459 13.6542 134.459 13.7348 134.459 13.8177C134.459 14.0808 134.458 14.344 134.457 14.6071C134.456 14.7907 134.456 14.9743 134.456 15.158C134.456 15.639 134.454 16.12 134.452 16.6011C134.451 17.0929 134.45 17.5846 134.449 18.0764C134.448 19.0397 134.445 20.0029 134.442 20.9662C133.39 20.9662 132.339 20.9662 131.255 20.9662C131.254 20.6356 131.254 20.6356 131.252 20.2983C131.248 19.5679 131.243 18.8375 131.238 18.1072C131.234 17.6646 131.231 17.222 131.229 16.7794C131.227 16.3519 131.224 15.9243 131.22 15.4968C131.219 15.3341 131.218 15.1714 131.218 15.0088C131.232 13.4213 131.232 13.4213 130.497 12.0491C129.884 11.4657 129.233 11.3367 128.401 11.3432C127.683 11.3676 127.123 11.5677 126.601 12.0658C125.879 12.835 125.86 13.8618 125.853 14.8583C125.853 14.9249 125.852 14.9915 125.851 15.0601C125.849 15.2774 125.847 15.4947 125.845 15.7121C125.843 15.8639 125.842 16.0157 125.84 16.1675C125.836 16.5649 125.832 16.9623 125.828 17.3597C125.824 17.8377 125.819 18.3157 125.814 18.7936C125.807 19.5178 125.8 20.242 125.793 20.9662C124.741 20.9662 123.69 20.9662 122.607 20.9662C122.605 20.7431 122.604 20.52 122.603 20.2902C122.599 19.5515 122.594 18.8127 122.589 18.074C122.585 17.6263 122.582 17.1786 122.58 16.7309C122.578 16.2984 122.575 15.866 122.571 15.4336C122.57 15.269 122.569 15.1044 122.569 14.9398C122.568 14.7084 122.566 14.4771 122.563 14.2458C122.564 14.1784 122.564 14.111 122.564 14.0416C122.552 13.2693 122.333 12.581 121.811 11.9976C121.23 11.449 120.52 11.3287 119.745 11.3396C119.006 11.3707 118.437 11.5884 117.899 12.0977C117.373 12.7255 117.285 13.421 117.28 14.2032C117.279 14.2764 117.279 14.3495 117.278 14.4249C117.276 14.6661 117.274 14.9074 117.272 15.1486C117.27 15.3161 117.269 15.4835 117.267 15.651C117.263 16.0914 117.259 16.5318 117.255 16.9722C117.252 17.4217 117.247 17.8713 117.243 18.3208C117.235 19.2026 117.227 20.0844 117.22 20.9662C116.143 20.9662 115.067 20.9662 113.958 20.9662C113.958 16.9108 113.958 12.8554 113.958 8.67708C115.034 8.67708 116.111 8.67708 117.22 8.67708C117.245 9.17164 117.27 9.6662 117.296 10.1758C117.455 9.98797 117.455 9.98797 117.618 9.7964C119.082 8.17488 122.054 8.0363 123.82 9.27655Z" fill="#FDFDFF"/>
<path d="M56.7533 9.27655C57.2767 9.66843 57.7415 10.1171 58.0431 10.7003C58.0431 10.7497 58.0431 10.7992 58.0431 10.8502C58.2582 10.6465 58.436 10.4361 58.6121 10.1992C59.1594 9.51923 59.8755 9.04768 60.6985 8.75201C60.7631 8.72815 60.8277 8.7043 60.8943 8.67971C62.1715 8.28809 63.695 8.45221 64.8996 8.99555C65.9871 9.58847 66.7503 10.5106 67.1472 11.6715C67.3352 12.3232 67.3859 12.9333 67.3834 13.6078C67.3834 13.6875 67.3835 13.7672 67.3835 13.8494C67.3834 14.1117 67.3828 14.374 67.3822 14.6364C67.3821 14.8187 67.382 15.0011 67.3819 15.1835C67.3816 15.6626 67.3809 16.1416 67.38 16.6207C67.3792 17.1099 67.3789 17.5992 67.3785 18.0884C67.3777 19.0477 67.3764 20.0069 67.3748 20.9662C66.3233 20.9662 65.2718 20.9662 64.1884 20.9662C64.1867 20.6396 64.1867 20.6396 64.185 20.3064C64.1812 19.5843 64.1761 18.8624 64.1705 18.1404C64.1671 17.7029 64.1641 17.2655 64.1621 16.828C64.1601 16.4053 64.157 15.9826 64.1532 15.5599C64.152 15.3992 64.1511 15.2385 64.1506 15.0778C64.1705 13.4539 64.1705 13.4539 63.4297 12.0491C62.8156 11.4656 62.1673 11.3386 61.3348 11.3427C60.6786 11.3635 60.1301 11.5337 59.6363 11.9742C59.5862 11.9742 59.5362 11.9742 59.4846 11.9742C59.4634 12.0166 59.4423 12.059 59.4206 12.1027C59.3627 12.2156 59.3027 12.3275 59.2404 12.4381C59.2083 12.4967 59.1762 12.5554 59.1432 12.6158C59.1111 12.6731 59.079 12.7303 59.046 12.7894C58.7086 13.6427 58.7755 14.5847 58.7703 15.4852C58.7689 15.6436 58.7674 15.8021 58.7659 15.9605C58.762 16.375 58.759 16.7895 58.7562 17.2041C58.7526 17.7027 58.7479 18.2014 58.7434 18.7001C58.7368 19.4554 58.7315 20.2108 58.7259 20.9662C57.6744 20.9662 56.6228 20.9662 55.5394 20.9662C55.5383 20.7431 55.5372 20.52 55.5361 20.2902C55.5323 19.5515 55.5272 18.8127 55.5216 18.074C55.5182 17.6263 55.5152 17.1786 55.5132 16.7309C55.5112 16.2984 55.5081 15.866 55.5043 15.4336C55.503 15.269 55.5022 15.1044 55.5017 14.9398C55.501 14.7084 55.4988 14.4771 55.4964 14.2458C55.4965 14.1784 55.4966 14.111 55.4967 14.0416C55.4852 13.2693 55.2658 12.581 54.7434 11.9976C54.1628 11.4488 53.453 11.3292 52.6777 11.3394C51.8897 11.3721 51.2988 11.625 50.7598 12.199C50.283 12.7717 50.1947 13.4589 50.1959 14.1777C50.1951 14.2516 50.1944 14.3256 50.1936 14.4017C50.1913 14.6434 50.1906 14.885 50.1899 15.1266C50.1886 15.2953 50.1872 15.4639 50.1857 15.6325C50.1822 16.0742 50.1799 16.516 50.1779 16.9577C50.1756 17.4093 50.1721 17.8609 50.1687 18.3125C50.1622 19.1971 50.1572 20.0816 50.1528 20.9662C49.0763 20.9662 47.9997 20.9662 46.8905 20.9662C46.8905 16.9108 46.8905 12.8554 46.8905 8.67708C47.9671 8.67708 49.0436 8.67708 50.1528 8.67708C50.1779 9.17164 50.2029 9.6662 50.2287 10.1758C50.3242 10.0629 50.4196 9.95011 50.5179 9.83387C52.0776 8.13217 54.8643 8.12287 56.7533 9.27655Z" fill="#FDFDFF"/>
<path d="M106.826 9.20162C107.264 9.5386 107.607 9.90299 107.964 10.3256C107.989 9.7816 108.014 9.23759 108.04 8.67708C109.091 8.67708 110.143 8.67708 111.226 8.67708C111.226 12.7325 111.226 16.7879 111.226 20.9662C110.175 20.9662 109.123 20.9662 108.04 20.9662C108.015 20.3975 107.99 19.8287 107.964 19.2427C107.831 19.3926 107.698 19.5426 107.561 19.697C106.87 20.4483 105.947 21.0558 104.891 21.1293C103.132 21.1671 101.666 20.9537 100.293 19.7561C99.1441 18.6649 98.4079 17.1673 98.3166 15.5837C98.2882 13.6301 98.2882 13.6301 98.5565 12.7235C98.5814 12.6365 98.6063 12.5494 98.632 12.4598C99.0525 11.1566 99.9419 9.98025 101.136 9.27655C101.204 9.23656 101.271 9.19657 101.341 9.15537C102.997 8.25831 105.209 8.20607 106.826 9.20162ZM102.342 12.3755C101.63 13.3181 101.519 14.3587 101.591 15.496C101.636 15.7872 101.71 16.0467 101.819 16.3203C101.843 16.383 101.867 16.4457 101.892 16.5103C102.239 17.2971 102.86 17.836 103.644 18.1846C104.437 18.4834 105.201 18.4862 106.001 18.1937C106.841 17.8169 107.512 17.1192 107.836 16.2688C108.215 15.1767 108.122 13.9835 107.651 12.9342C107.257 12.2075 106.581 11.6676 105.802 11.3887C104.517 11.0485 103.235 11.3887 102.342 12.3755Z" fill="#FDFDFF"/>
<path d="M34.1447 5.45494C37.4996 5.45494 40.8545 5.45494 44.311 5.45494C44.311 6.34515 44.311 7.23536 44.311 8.15255C42.0327 8.15255 39.7544 8.15255 37.407 8.15255C37.407 9.38895 37.407 10.6254 37.407 11.8992C39.46 11.8992 41.513 11.8992 43.6282 11.8992C43.6282 12.7894 43.6282 13.6797 43.6282 14.5968C41.5752 14.5968 39.5222 14.5968 37.407 14.5968C37.407 15.8085 37.407 17.0202 37.407 18.2686C39.6853 18.2686 41.9637 18.2686 44.311 18.2686C44.311 19.1588 44.311 20.049 44.311 20.9662C40.9561 20.9662 37.6013 20.9662 34.1447 20.9662C34.1447 15.8475 34.1447 10.7288 34.1447 5.45494Z" fill="#FDFDFF"/>
<path d="M20.6213 1.61459C20.6905 1.64904 20.7597 1.68349 20.831 1.71898C20.8944 1.75214 20.9578 1.78531 21.0232 1.81949C21.0794 1.84863 21.1356 1.87778 21.1935 1.90781C21.3231 2.00799 21.3231 2.00799 21.3939 2.14258C21.4014 2.38916 21.2987 2.52932 21.1728 2.74064C21.1482 2.78254 21.1236 2.82444 21.0983 2.86761C21.0176 3.00463 20.9356 3.14088 20.8537 3.27718C20.7977 3.37186 20.7419 3.4666 20.6861 3.5614C20.5462 3.79903 20.4053 4.03611 20.2642 4.27303C19.2946 5.90154 18.4126 7.39108 18.7931 9.35324C19.125 10.6055 19.8734 11.679 20.9731 12.3892C21.4691 12.6631 21.9984 12.8493 22.537 13.0232C22.5799 14.5292 22.3774 15.8046 21.8542 17.2195C21.4678 17.1828 21.2139 16.9943 20.9058 16.7793C20.8523 16.7423 20.7987 16.7053 20.7436 16.6671C19.0493 15.4789 17.6472 13.986 16.6193 12.199C16.5697 12.1149 16.5201 12.0309 16.469 11.9443C15.8548 10.8774 15.4441 9.73577 15.1493 8.54595C15.1312 8.47342 15.1131 8.40089 15.0945 8.32616C14.8067 7.09443 14.7779 5.88413 14.789 4.62598C14.7897 4.47295 14.7904 4.31991 14.791 4.16687C14.7927 3.79692 14.7953 3.427 14.7985 3.05706C13.5901 3.03302 13.5901 3.03302 12.3897 3.14604C12.2918 3.16101 12.2918 3.16101 12.1919 3.17627C10.8256 3.3991 9.46694 3.86591 8.30554 4.61662C8.12209 4.7056 8.12209 4.7056 7.97339 4.6964C7.75201 4.60238 7.70047 4.47495 7.58657 4.26742C7.54476 4.1926 7.50296 4.11779 7.45988 4.04071C7.41709 3.96184 7.37431 3.88297 7.33022 3.80171C7.2451 3.64778 7.15985 3.49391 7.07447 3.34011C7.03379 3.2662 6.99312 3.1923 6.95122 3.11615C6.81696 2.88015 6.67174 2.6537 6.51848 2.42936C6.453 2.30773 6.453 2.30773 6.453 2.08292C10.8537 -0.517579 16.0491 -0.693775 20.6213 1.61459Z" fill="#8AB732"/>
<path d="M24.813 13.1731C25.8145 13.1731 26.8159 13.1731 27.8477 13.1731C28.5041 15.118 27.3281 18.2016 26.4714 19.9432C25.8641 21.1249 25.1073 22.2285 24.1665 23.1757C24.0458 23.2978 23.9273 23.4218 23.8086 23.5458C22.9262 24.4565 21.6246 25.7069 20.3368 25.9868C20.1959 25.7527 20.0553 25.5185 19.9148 25.2843C19.871 25.2112 19.8271 25.1382 19.782 25.063C19.5358 24.6517 19.2924 24.2391 19.053 23.8239C19.0037 23.7387 18.9545 23.6535 18.9038 23.5657C18.809 23.4013 18.7145 23.2366 18.6206 23.0717C17.7698 21.5979 16.7909 20.5471 15.1019 20.067C13.7991 19.7304 12.411 20.0416 11.2676 20.6893C11.0047 20.8682 10.7825 21.0797 10.5626 21.3078C10.3981 21.4158 10.3981 21.4158 10.1803 21.4117C8.93837 21.0411 7.76106 19.8628 6.98408 18.8681C7.08526 18.6287 7.16551 18.5252 7.40194 18.4126C7.4571 18.3862 7.51225 18.3598 7.56907 18.3326C7.62952 18.3053 7.68996 18.278 7.75224 18.2499C7.81567 18.2209 7.8791 18.1919 7.94445 18.162C9.56429 17.4427 11.3545 16.9156 13.1424 16.9046C13.2284 16.9038 13.2284 16.9038 13.3162 16.903C15.7258 16.8858 15.7258 16.8858 16.8469 17.1446C16.9129 17.1595 16.979 17.1744 17.047 17.1897C18.9992 17.6424 20.718 18.5276 22.4276 19.5401C22.614 19.6488 22.7967 19.7513 22.9922 19.8422C23.0115 19.7896 23.0309 19.7371 23.0509 19.683C23.1536 19.4451 23.2818 19.2382 23.4189 19.0179C24.4861 17.2264 24.813 15.223 24.813 13.1731Z" fill="#F37A1F"/>
<path d="M13.0535 5.30507C13.1614 8.31615 12.1073 11.3187 10.2464 13.6976C10.1964 13.7637 10.1464 13.8298 10.095 13.8978C8.91993 15.391 7.48027 16.4916 5.84606 17.4443C5.69323 17.5339 5.54041 17.6234 5.38759 17.713C4.98453 17.949 4.58093 18.184 4.17697 18.4185C5.1802 20.5774 6.89556 22.2773 9.03251 23.3641C8.74569 23.956 8.44015 24.5314 8.10313 25.0969C8.07096 25.151 8.0388 25.2051 8.00566 25.2608C7.8538 25.5131 7.7009 25.7568 7.51515 25.9867C7.05206 25.8709 6.69219 25.6195 6.30127 25.3592C6.23045 25.3121 6.15964 25.2651 6.08669 25.2166C5.48724 24.8124 4.93276 24.3798 4.40457 23.8886C4.35992 23.8473 4.31526 23.8059 4.26925 23.7634C3.64165 23.1769 3.07978 22.565 2.58375 21.8654C2.53438 21.7967 2.53438 21.7967 2.48402 21.7266C1.29203 20.05 0.537968 18.1767 0.155978 16.1704C0.138766 16.0818 0.121553 15.9931 0.103819 15.9017C0.00358507 15.2899 -0.00280973 14.6913 0.000686602 14.0726C0.000943323 13.9859 0.00120004 13.8993 0.00146454 13.81C0.00213051 13.5977 0.00306347 13.3854 0.0042429 13.1731C0.0900197 13.1727 0.0900196 13.1727 0.177529 13.1723C0.722015 13.1694 1.26646 13.1651 1.81092 13.1593C2.0907 13.1564 2.37045 13.154 2.65024 13.1528C5.31114 13.1494 5.31114 13.1494 7.55664 11.8457C7.66689 11.7494 7.66689 11.7494 7.81862 11.7494C7.83848 11.7062 7.85833 11.663 7.87878 11.6185C7.97605 11.4391 8.08901 11.3006 8.22167 11.1452C9.0065 10.1605 9.29305 8.84855 9.15016 7.61806C9.11364 7.32127 9.07372 7.02499 9.03251 6.72881C10.2161 6.01774 11.6292 5.30507 13.0535 5.30507Z" fill="#297DC1"/>
<path d="M97.5702 8.52721C97.5702 9.59052 97.5702 10.6538 97.5702 11.7494C96.9317 11.7865 96.9317 11.7865 96.2804 11.8243C95.5731 11.9574 94.9223 12.1382 94.4667 12.7296C93.8952 13.7195 93.9905 14.9062 93.9804 16.0048C93.9788 16.1482 93.9772 16.2916 93.9756 16.435C93.9714 16.8102 93.9677 17.1855 93.964 17.5607C93.9595 18.0121 93.9545 18.4635 93.9496 18.9149C93.9422 19.5987 93.9354 20.2824 93.9285 20.9662C92.877 20.9662 91.8255 20.9662 90.7421 20.9662C90.7421 16.9108 90.7421 12.8554 90.7421 8.67708C91.7936 8.67708 92.8451 8.67708 93.9285 8.67708C93.9536 9.29528 93.9786 9.91348 94.0044 10.5504C94.1045 10.4129 94.2047 10.2753 94.3079 10.1336C95.1499 9.01559 96.1622 8.52721 97.5702 8.52721Z" fill="#FDFDFF"/>
<path d="M70.0302 8.67708C71.0817 8.67708 72.1333 8.67708 73.2166 8.67708C73.2166 12.7325 73.2166 16.7879 73.2166 20.9662C72.1651 20.9662 71.1136 20.9662 70.0302 20.9662C70.0302 16.9108 70.0302 12.8554 70.0302 8.67708Z" fill="#FDFDFF"/>
<path d="M6.02062 6.01987C6.57193 6.45261 6.8995 7.03163 7.05995 7.70295C7.14286 8.57521 7.03472 9.29389 6.51465 10.0118C6.11859 10.4791 5.55134 10.8875 4.93565 11C3.95879 11.0777 3.19879 10.9926 2.41275 10.3678C1.83023 9.85292 1.51826 9.21606 1.44573 8.45228C1.43649 7.67651 1.64292 7.04195 2.12854 6.42908C3.19362 5.35832 4.74149 5.17475 6.02062 6.01987Z" fill="#297DC1"/>
<path d="M15.577 22.517C16.1625 22.951 16.607 23.581 16.7257 24.2978C16.8394 25.1993 16.5948 25.8856 16.1072 26.6424C15.5216 27.2208 14.7786 27.5646 13.9497 27.5791C13.1478 27.5685 12.497 27.2912 11.9173 26.7446C11.2763 26.059 11.1197 25.4051 11.1352 24.4928C11.1535 24.1003 11.2688 23.7817 11.4603 23.439C11.5025 23.3617 11.5448 23.2845 11.5883 23.2048C12.5989 21.9639 14.199 21.5951 15.577 22.517Z" fill="#F37A1F"/>
<path d="M24.8515 5.72101C25.5636 6.13 26.1216 6.76196 26.3588 7.54839C26.5148 8.33802 26.4079 9.0865 25.9795 9.77299C25.5238 10.3978 24.9827 10.8479 24.2061 11C23.3919 11.0779 22.6331 11.0438 21.9514 10.5513C21.3017 10.005 20.8576 9.37332 20.7677 8.52165C20.7353 7.61914 21.0204 6.90205 21.636 6.23706C22.4566 5.44586 23.8096 5.27526 24.8515 5.72101Z" fill="#8AB732"/>
<path d="M72.8373 4.0312C73.3034 4.46608 73.5364 4.86379 73.5927 5.49533C73.6038 6.1245 73.4207 6.57025 72.989 7.02855C72.6052 7.3977 72.1641 7.56198 71.6329 7.58586C71.0714 7.56542 70.5956 7.38316 70.1867 7.00045C69.7761 6.55388 69.6169 6.07861 69.6307 5.47777C69.7038 4.85112 69.9494 4.3934 70.4486 4.00105C71.1726 3.54124 72.1306 3.51579 72.8373 4.0312Z" fill="#FDFDFF"/>
</svg>
