<svg width="136" height="32" viewBox="0 0 136 32" fill="none" xmlns="http://www.w3.org/2000/svg">
<path d="M84.6864 11.2766C85.0864 11.6011 85.4242 11.9252 85.7485 12.3256C85.7736 11.7816 85.7986 11.2376 85.8244 10.6771C86.8759 10.6771 87.9274 10.6771 89.0108 10.6771C89.016 12.288 89.0202 13.8989 89.0226 15.5098C89.0238 16.2579 89.0254 17.006 89.028 17.754C89.0303 18.4065 89.0317 19.059 89.0322 19.7115C89.0325 20.0566 89.0332 20.4017 89.0349 20.7467C89.0365 21.0724 89.0369 21.3982 89.0366 21.7239C89.0366 21.8425 89.0371 21.9612 89.038 22.0798C89.0501 23.7914 88.6634 25.4901 87.4395 26.7758C86.0186 28.1002 84.2915 28.4228 82.3998 28.3716C80.6815 28.2908 79.0492 27.8416 77.7824 26.6379C77.0705 25.8402 76.6302 24.8581 76.6444 23.7905C77.079 23.7719 77.5134 23.7583 77.9484 23.7493C78.0962 23.7455 78.2439 23.7404 78.3916 23.7339C79.625 23.6811 79.625 23.6811 79.9465 23.9517C80.0612 24.1449 80.1329 24.3302 80.2102 24.5398C80.798 25.199 81.6803 25.47 82.5434 25.5356C83.4737 25.556 84.2213 25.391 84.924 24.7719C85.6886 24.0015 85.7616 23.0287 85.7533 22.0014C85.7529 21.9213 85.7526 21.8411 85.7522 21.7585C85.7513 21.5616 85.7501 21.3647 85.7485 21.1678C85.7135 21.2149 85.6785 21.2621 85.6424 21.3106C84.9221 22.2442 83.9869 22.938 82.7897 23.1161C81.1432 23.2468 79.652 23 78.323 21.964C77.033 20.8559 76.2243 19.363 76.0915 17.6672C76.083 17.385 76.0822 17.1039 76.0849 16.8216C76.084 16.7279 76.0831 16.6343 76.0822 16.5377C76.0875 14.8658 76.6716 13.2903 77.8615 12.0879C79.5472 10.4579 82.6834 9.78213 84.6864 11.2766ZM80.1533 14.3301C79.3574 15.2858 79.2838 16.3839 79.3756 17.571C79.5332 18.4944 79.9969 19.2826 80.7614 19.8398C81.5594 20.3363 82.3181 20.5031 83.2449 20.3435C83.7765 20.217 84.1809 19.9993 84.6105 19.6691C84.6603 19.6315 84.7101 19.594 84.7614 19.5553C85.4522 18.9577 85.7781 17.9988 85.8404 17.1205C85.8742 16.0544 85.6451 15.0133 84.895 14.213C84.1259 13.5153 83.2836 13.2374 82.2542 13.2737C81.4312 13.3454 80.7145 13.7375 80.1533 14.3301Z" fill="#25262D"/>
<path d="M124.82 11.2765C125.37 11.7024 125.841 12.1691 126.186 12.7752C126.381 12.5908 126.557 12.3975 126.731 12.1945C127.583 11.2384 128.631 10.6059 129.939 10.514C131.417 10.4403 132.807 10.6564 133.948 11.6653C134.868 12.5213 135.373 13.6889 135.456 14.9302C135.46 15.1448 135.461 15.359 135.459 15.5737C135.459 15.6542 135.459 15.7348 135.459 15.8177C135.459 16.0808 135.458 16.344 135.457 16.6071C135.456 16.7907 135.456 16.9743 135.456 17.158C135.456 17.639 135.454 18.12 135.452 18.6011C135.451 19.0929 135.45 19.5846 135.449 20.0764C135.448 21.0397 135.445 22.0029 135.442 22.9662C134.39 22.9662 133.339 22.9662 132.255 22.9662C132.254 22.6356 132.254 22.6356 132.252 22.2983C132.248 21.5679 132.243 20.8375 132.238 20.1072C132.234 19.6646 132.231 19.222 132.229 18.7794C132.227 18.3519 132.224 17.9243 132.22 17.4968C132.219 17.3341 132.218 17.1714 132.218 17.0088C132.232 15.4213 132.232 15.4213 131.497 14.0491C130.884 13.4657 130.233 13.3367 129.401 13.3432C128.683 13.3676 128.123 13.5677 127.601 14.0658C126.879 14.835 126.86 15.8618 126.853 16.8583C126.853 16.9249 126.852 16.9915 126.851 17.0601C126.849 17.2774 126.847 17.4947 126.845 17.7121C126.843 17.8639 126.842 18.0157 126.84 18.1675C126.836 18.5649 126.832 18.9623 126.828 19.3597C126.824 19.8377 126.819 20.3157 126.814 20.7936C126.807 21.5178 126.8 22.242 126.793 22.9662C125.741 22.9662 124.69 22.9662 123.607 22.9662C123.605 22.7431 123.604 22.52 123.603 22.2902C123.599 21.5515 123.594 20.8127 123.589 20.074C123.585 19.6263 123.582 19.1786 123.58 18.7309C123.578 18.2984 123.575 17.866 123.571 17.4336C123.57 17.269 123.569 17.1044 123.569 16.9398C123.568 16.7084 123.566 16.4771 123.563 16.2458C123.564 16.1784 123.564 16.111 123.564 16.0416C123.552 15.2693 123.333 14.581 122.811 13.9976C122.23 13.449 121.52 13.3287 120.745 13.3396C120.006 13.3707 119.437 13.5884 118.899 14.0977C118.373 14.7255 118.285 15.421 118.28 16.2032C118.279 16.2764 118.279 16.3495 118.278 16.4249C118.276 16.6661 118.274 16.9074 118.272 17.1486C118.27 17.3161 118.269 17.4835 118.267 17.651C118.263 18.0914 118.259 18.5318 118.255 18.9722C118.252 19.4217 118.247 19.8713 118.243 20.3208C118.235 21.2026 118.227 22.0844 118.22 22.9662C117.143 22.9662 116.067 22.9662 114.958 22.9662C114.958 18.9108 114.958 14.8554 114.958 10.6771C116.034 10.6771 117.111 10.6771 118.22 10.6771C118.245 11.1716 118.27 11.6662 118.296 12.1758C118.455 11.988 118.455 11.988 118.618 11.7964C120.082 10.1749 123.054 10.0363 124.82 11.2765Z" fill="#25262D"/>
<path d="M57.7533 11.2765C58.2767 11.6684 58.7415 12.1171 59.0431 12.7003C59.0431 12.7497 59.0431 12.7992 59.0431 12.8502C59.2582 12.6465 59.436 12.4361 59.6121 12.1992C60.1594 11.5192 60.8755 11.0477 61.6985 10.752C61.7631 10.7282 61.8277 10.7043 61.8943 10.6797C63.1715 10.2881 64.695 10.4522 65.8996 10.9955C66.9871 11.5885 67.7503 12.5106 68.1472 13.6715C68.3352 14.3232 68.3859 14.9333 68.3834 15.6078C68.3834 15.6875 68.3835 15.7672 68.3835 15.8494C68.3834 16.1117 68.3828 16.374 68.3822 16.6364C68.3821 16.8187 68.382 17.0011 68.3819 17.1835C68.3816 17.6626 68.3809 18.1416 68.38 18.6207C68.3792 19.1099 68.3789 19.5992 68.3785 20.0884C68.3777 21.0477 68.3764 22.0069 68.3748 22.9662C67.3233 22.9662 66.2718 22.9662 65.1884 22.9662C65.1867 22.6396 65.1867 22.6396 65.185 22.3064C65.1812 21.5843 65.1761 20.8624 65.1705 20.1404C65.1671 19.7029 65.1641 19.2655 65.1621 18.828C65.1601 18.4053 65.157 17.9826 65.1532 17.5599C65.152 17.3992 65.1511 17.2385 65.1506 17.0778C65.1705 15.4539 65.1705 15.4539 64.4297 14.0491C63.8156 13.4656 63.1673 13.3386 62.3348 13.3427C61.6786 13.3635 61.1301 13.5337 60.6363 13.9742C60.5862 13.9742 60.5362 13.9742 60.4846 13.9742C60.4634 14.0166 60.4423 14.059 60.4206 14.1027C60.3627 14.2156 60.3027 14.3275 60.2404 14.4381C60.2083 14.4967 60.1762 14.5554 60.1432 14.6158C60.1111 14.6731 60.079 14.7303 60.046 14.7894C59.7086 15.6427 59.7755 16.5847 59.7703 17.4852C59.7689 17.6436 59.7674 17.8021 59.7659 17.9605C59.762 18.375 59.759 18.7895 59.7562 19.2041C59.7526 19.7027 59.7479 20.2014 59.7434 20.7001C59.7368 21.4554 59.7315 22.2108 59.7259 22.9662C58.6744 22.9662 57.6228 22.9662 56.5394 22.9662C56.5383 22.7431 56.5372 22.52 56.5361 22.2902C56.5323 21.5515 56.5272 20.8127 56.5216 20.074C56.5182 19.6263 56.5152 19.1786 56.5132 18.7309C56.5112 18.2984 56.5081 17.866 56.5043 17.4336C56.503 17.269 56.5022 17.1044 56.5017 16.9398C56.501 16.7084 56.4988 16.4771 56.4964 16.2458C56.4965 16.1784 56.4966 16.111 56.4967 16.0416C56.4852 15.2693 56.2658 14.581 55.7434 13.9976C55.1628 13.4488 54.453 13.3292 53.6777 13.3394C52.8897 13.3721 52.2988 13.625 51.7598 14.199C51.283 14.7717 51.1947 15.4589 51.1959 16.1777C51.1951 16.2516 51.1944 16.3256 51.1936 16.4017C51.1913 16.6434 51.1906 16.885 51.1899 17.1266C51.1886 17.2953 51.1872 17.4639 51.1857 17.6325C51.1822 18.0742 51.1799 18.516 51.1779 18.9577C51.1756 19.4093 51.1721 19.8609 51.1687 20.3125C51.1622 21.1971 51.1572 22.0816 51.1528 22.9662C50.0763 22.9662 48.9997 22.9662 47.8905 22.9662C47.8905 18.9108 47.8905 14.8554 47.8905 10.6771C48.9671 10.6771 50.0436 10.6771 51.1528 10.6771C51.1779 11.1716 51.2029 11.6662 51.2287 12.1758C51.3242 12.0629 51.4196 11.9501 51.5179 11.8339C53.0776 10.1322 55.8643 10.1229 57.7533 11.2765Z" fill="#25262D"/>
<path d="M107.826 11.2016C108.264 11.5386 108.607 11.903 108.964 12.3256C108.989 11.7816 109.014 11.2376 109.04 10.6771C110.091 10.6771 111.143 10.6771 112.226 10.6771C112.226 14.7325 112.226 18.7879 112.226 22.9662C111.175 22.9662 110.123 22.9662 109.04 22.9662C109.015 22.3975 108.99 21.8287 108.964 21.2427C108.831 21.3926 108.698 21.5426 108.561 21.697C107.87 22.4483 106.947 23.0558 105.891 23.1293C104.132 23.1671 102.666 22.9537 101.293 21.7561C100.144 20.6649 99.4079 19.1673 99.3166 17.5837C99.2882 15.6301 99.2882 15.6301 99.5565 14.7235C99.5814 14.6365 99.6063 14.5494 99.632 14.4598C100.052 13.1566 100.942 11.9803 102.136 11.2766C102.204 11.2366 102.271 11.1966 102.341 11.1554C103.997 10.2583 106.209 10.2061 107.826 11.2016ZM103.342 14.3755C102.63 15.3181 102.519 16.3587 102.591 17.496C102.636 17.7872 102.71 18.0467 102.819 18.3203C102.843 18.383 102.867 18.4457 102.892 18.5103C103.239 19.2971 103.86 19.836 104.644 20.1846C105.437 20.4834 106.201 20.4862 107.001 20.1937C107.841 19.8169 108.512 19.1192 108.836 18.2688C109.215 17.1767 109.122 15.9835 108.651 14.9342C108.257 14.2075 107.581 13.6676 106.802 13.3887C105.517 13.0485 104.235 13.3887 103.342 14.3755Z" fill="#25262D"/>
<path d="M35.1447 7.45494C38.4996 7.45494 41.8545 7.45494 45.311 7.45494C45.311 8.34515 45.311 9.23536 45.311 10.1525C43.0327 10.1525 40.7544 10.1525 38.407 10.1525C38.407 11.389 38.407 12.6254 38.407 13.8992C40.46 13.8992 42.513 13.8992 44.6282 13.8992C44.6282 14.7894 44.6282 15.6797 44.6282 16.5968C42.5752 16.5968 40.5222 16.5968 38.407 16.5968C38.407 17.8085 38.407 19.0202 38.407 20.2686C40.6853 20.2686 42.9637 20.2686 45.311 20.2686C45.311 21.1588 45.311 22.049 45.311 22.9662C41.9561 22.9662 38.6013 22.9662 35.1447 22.9662C35.1447 17.8475 35.1447 12.7288 35.1447 7.45494Z" fill="#25262D"/>
<path d="M21.6213 3.61459C21.6905 3.64904 21.7597 3.68349 21.831 3.71898C21.8944 3.75214 21.9578 3.78531 22.0232 3.81949C22.0794 3.84863 22.1356 3.87778 22.1935 3.90781C22.3231 4.00799 22.3231 4.00799 22.3939 4.14258C22.4014 4.38916 22.2987 4.52932 22.1728 4.74064C22.1482 4.78254 22.1236 4.82444 22.0983 4.86761C22.0176 5.00463 21.9356 5.14088 21.8537 5.27718C21.7977 5.37186 21.7419 5.4666 21.6861 5.5614C21.5462 5.79903 21.4053 6.03611 21.2642 6.27303C20.2946 7.90154 19.4126 9.39108 19.7931 11.3532C20.125 12.6055 20.8734 13.679 21.9731 14.3892C22.4691 14.6631 22.9984 14.8493 23.537 15.0232C23.5799 16.5292 23.3774 17.8046 22.8542 19.2195C22.4678 19.1828 22.2139 18.9943 21.9058 18.7793C21.8523 18.7423 21.7987 18.7053 21.7436 18.6671C20.0493 17.4789 18.6472 15.986 17.6193 14.199C17.5697 14.1149 17.5201 14.0309 17.469 13.9443C16.8548 12.8774 16.4441 11.7358 16.1493 10.546C16.1312 10.4734 16.1131 10.4009 16.0945 10.3262C15.8067 9.09443 15.7779 7.88413 15.789 6.62598C15.7897 6.47295 15.7904 6.31991 15.791 6.16687C15.7927 5.79692 15.7953 5.427 15.7985 5.05706C14.5901 5.03302 14.5901 5.03302 13.3897 5.14604C13.2918 5.16101 13.2918 5.16101 13.1919 5.17627C11.8256 5.3991 10.4669 5.86591 9.30554 6.61662C9.12209 6.7056 9.12209 6.7056 8.97339 6.6964C8.75201 6.60238 8.70047 6.47495 8.58657 6.26742C8.54476 6.1926 8.50296 6.11779 8.45988 6.04071C8.41709 5.96184 8.37431 5.88297 8.33022 5.80171C8.2451 5.64778 8.15985 5.49391 8.07447 5.34011C8.03379 5.2662 7.99312 5.1923 7.95122 5.11615C7.81696 4.88015 7.67174 4.6537 7.51848 4.42936C7.453 4.30773 7.453 4.30773 7.453 4.08292C11.8537 1.48242 17.0491 1.30623 21.6213 3.61459Z" fill="#8AB732"/>
<path d="M25.813 15.1731C26.8145 15.1731 27.8159 15.1731 28.8477 15.1731C29.5041 17.118 28.3281 20.2016 27.4714 21.9432C26.8641 23.1249 26.1073 24.2285 25.1665 25.1757C25.0458 25.2978 24.9273 25.4218 24.8086 25.5458C23.9262 26.4565 22.6246 27.7069 21.3368 27.9868C21.1959 27.7527 21.0553 27.5185 20.9148 27.2843C20.871 27.2112 20.8271 27.1382 20.782 27.063C20.5358 26.6517 20.2924 26.2391 20.053 25.8239C20.0037 25.7387 19.9545 25.6535 19.9038 25.5657C19.809 25.4013 19.7145 25.2366 19.6206 25.0717C18.7698 23.5979 17.7909 22.5471 16.1019 22.067C14.7991 21.7304 13.411 22.0416 12.2676 22.6893C12.0047 22.8682 11.7825 23.0797 11.5626 23.3078C11.3981 23.4158 11.3981 23.4158 11.1803 23.4117C9.93837 23.0411 8.76106 21.8628 7.98408 20.8681C8.08526 20.6287 8.16551 20.5252 8.40194 20.4126C8.4571 20.3862 8.51225 20.3598 8.56907 20.3326C8.62952 20.3053 8.68996 20.278 8.75224 20.2499C8.81567 20.2209 8.8791 20.1919 8.94445 20.162C10.5643 19.4427 12.3545 18.9156 14.1424 18.9046C14.2284 18.9038 14.2284 18.9038 14.3162 18.903C16.7258 18.8858 16.7258 18.8858 17.8469 19.1446C17.9129 19.1595 17.979 19.1744 18.047 19.1897C19.9992 19.6424 21.718 20.5276 23.4276 21.5401C23.614 21.6488 23.7967 21.7513 23.9922 21.8422C24.0115 21.7896 24.0309 21.7371 24.0509 21.683C24.1536 21.4451 24.2818 21.2382 24.4189 21.0179C25.4861 19.2264 25.813 17.223 25.813 15.1731Z" fill="#F37A1F"/>
<path d="M14.0535 7.30507C14.1614 10.3162 13.1073 13.3187 11.2464 15.6976C11.1964 15.7637 11.1464 15.8298 11.095 15.8978C9.91993 17.391 8.48027 18.4916 6.84606 19.4443C6.69323 19.5339 6.54041 19.6234 6.38759 19.713C5.98453 19.949 5.58093 20.184 5.17697 20.4185C6.1802 22.5774 7.89556 24.2773 10.0325 25.3641C9.74569 25.956 9.44015 26.5314 9.10313 27.0969C9.07096 27.151 9.0388 27.2051 9.00566 27.2608C8.8538 27.5131 8.7009 27.7568 8.51515 27.9867C8.05206 27.8709 7.69219 27.6195 7.30127 27.3592C7.23045 27.3121 7.15964 27.2651 7.08669 27.2166C6.48724 26.8124 5.93276 26.3798 5.40457 25.8886C5.35992 25.8473 5.31526 25.8059 5.26925 25.7634C4.64165 25.1769 4.07978 24.565 3.58375 23.8654C3.53438 23.7967 3.53438 23.7967 3.48402 23.7266C2.29203 22.05 1.53797 20.1767 1.15598 18.1704C1.13877 18.0818 1.12155 17.9931 1.10382 17.9017C1.00359 17.2899 0.99719 16.6913 1.00069 16.0726C1.00094 15.9859 1.0012 15.8993 1.00146 15.81C1.00213 15.5977 1.00306 15.3854 1.00424 15.1731C1.09002 15.1727 1.09002 15.1727 1.17753 15.1723C1.72201 15.1694 2.26646 15.1651 2.81092 15.1593C3.0907 15.1564 3.37045 15.154 3.65024 15.1528C6.31114 15.1494 6.31114 15.1494 8.55664 13.8457C8.66689 13.7494 8.66689 13.7494 8.81862 13.7494C8.83848 13.7062 8.85833 13.663 8.87878 13.6185C8.97605 13.4391 9.08901 13.3006 9.22167 13.1452C10.0065 12.1605 10.293 10.8485 10.1502 9.61806C10.1136 9.32127 10.0737 9.02499 10.0325 8.72881C11.2161 8.01774 12.6292 7.30507 14.0535 7.30507Z" fill="#297DC1"/>
<path d="M98.5702 10.5272C98.5702 11.5905 98.5702 12.6538 98.5702 13.7494C97.9317 13.7865 97.9317 13.7865 97.2804 13.8243C96.5731 13.9574 95.9223 14.1382 95.4667 14.7296C94.8952 15.7195 94.9905 16.9062 94.9804 18.0048C94.9788 18.1482 94.9772 18.2916 94.9756 18.435C94.9714 18.8102 94.9677 19.1855 94.964 19.5607C94.9595 20.0121 94.9545 20.4635 94.9496 20.9149C94.9422 21.5987 94.9354 22.2824 94.9285 22.9662C93.877 22.9662 92.8255 22.9662 91.7421 22.9662C91.7421 18.9108 91.7421 14.8554 91.7421 10.6771C92.7936 10.6771 93.8451 10.6771 94.9285 10.6771C94.9536 11.2953 94.9786 11.9135 95.0044 12.5504C95.1045 12.4129 95.2047 12.2753 95.3079 12.1336C96.1499 11.0156 97.1622 10.5272 98.5702 10.5272Z" fill="#25262D"/>
<path d="M71.0302 10.6771C72.0817 10.6771 73.1333 10.6771 74.2166 10.6771C74.2166 14.7325 74.2166 18.7879 74.2166 22.9662C73.1651 22.9662 72.1136 22.9662 71.0302 22.9662C71.0302 18.9108 71.0302 14.8554 71.0302 10.6771Z" fill="#25262D"/>
<path d="M7.02062 8.01987C7.57193 8.45261 7.8995 9.03163 8.05995 9.70295C8.14286 10.5752 8.03472 11.2939 7.51465 12.0118C7.11859 12.4791 6.55134 12.8875 5.93565 13C4.95879 13.0777 4.19879 12.9926 3.41275 12.3678C2.83023 11.8529 2.51826 11.2161 2.44573 10.4523C2.43649 9.67651 2.64292 9.04195 3.12854 8.42908C4.19362 7.35832 5.74149 7.17475 7.02062 8.01987Z" fill="#297DC1"/>
<path d="M16.577 24.517C17.1625 24.951 17.607 25.581 17.7257 26.2978C17.8394 27.1993 17.5948 27.8856 17.1072 28.6424C16.5216 29.2208 15.7786 29.5646 14.9497 29.5791C14.1478 29.5685 13.497 29.2912 12.9173 28.7446C12.2763 28.059 12.1197 27.4051 12.1352 26.4928C12.1535 26.1003 12.2688 25.7817 12.4603 25.439C12.5025 25.3617 12.5448 25.2845 12.5883 25.2048C13.5989 23.9639 15.199 23.5951 16.577 24.517Z" fill="#F37A1F"/>
<path d="M25.8515 7.72101C26.5636 8.13 27.1216 8.76196 27.3588 9.54839C27.5148 10.338 27.4079 11.0865 26.9795 11.773C26.5238 12.3978 25.9827 12.8479 25.2061 13C24.3919 13.0779 23.6331 13.0438 22.9514 12.5513C22.3017 12.005 21.8576 11.3733 21.7677 10.5217C21.7353 9.61914 22.0204 8.90205 22.636 8.23706C23.4566 7.44586 24.8096 7.27526 25.8515 7.72101Z" fill="#8AB732"/>
<path d="M73.8373 6.0312C74.3034 6.46608 74.5364 6.86379 74.5927 7.49533C74.6038 8.1245 74.4207 8.57025 73.989 9.02855C73.6052 9.3977 73.1641 9.56198 72.6329 9.58586C72.0714 9.56542 71.5956 9.38316 71.1867 9.00045C70.7761 8.55388 70.6169 8.07861 70.6307 7.47777C70.7038 6.85112 70.9494 6.3934 71.4486 6.00105C72.1726 5.54124 73.1306 5.51579 73.8373 6.0312Z" fill="#25262D"/>
</svg>
