<svg width="22" height="20" viewBox="0 0 22 20" fill="none" xmlns="http://www.w3.org/2000/svg">
  <path d="M3.29517 12.9991C3.35985 12.8415 3.57755 12.8415 3.64223 12.9991L4.55461 15.223C4.5737 15.2695 4.60976 15.3065 4.65508 15.3261L6.82218 16.2624C6.97581 16.3288 6.97581 16.5522 6.82218 16.6185L4.65508 17.5548C4.60976 17.5744 4.5737 17.6114 4.55461 17.6579L3.64223 19.8818C3.57755 20.0394 3.35985 20.0394 3.29517 19.8818L2.38279 17.6579C2.36371 17.6114 2.32765 17.5744 2.28232 17.5548L0.115224 16.6185C-0.0384077 16.5522 -0.038408 16.3288 0.115224 16.2624L2.28232 15.3261C2.32765 15.3065 2.36371 15.2695 2.38279 15.223L3.29517 12.9991Z" fill="#25262D"/>
  <path d="M15.2197 3.98251C15.2844 3.82486 15.5021 3.82486 15.5668 3.98251L17.4089 8.47251C17.428 8.51902 17.464 8.55603 17.5094 8.57561L21.8848 10.466C22.0384 10.5323 22.0384 10.7557 21.8848 10.8221L17.5094 12.7125C17.464 12.7321 17.428 12.7691 17.4089 12.8156L15.5668 17.3056C15.5021 17.4632 15.2844 17.4632 15.2197 17.3056L13.3776 12.8156C13.3585 12.7691 13.3225 12.7321 13.2771 12.7125L8.90174 10.8221C8.74811 10.7557 8.74811 10.5323 8.90174 10.466L13.2771 8.57561C13.3225 8.55603 13.3585 8.51902 13.3776 8.47251L15.2197 3.98251Z" fill="#25262D"/>
  <path d="M5.30937 0.126579C5.38042 -0.0421929 5.61958 -0.0421931 5.69063 0.126579L6.8972 2.99243C6.91816 3.04222 6.95778 3.08184 7.00757 3.1028L9.87342 4.30937C10.0422 4.38042 10.0422 4.61958 9.87342 4.69063L7.00757 5.8972C6.95778 5.91816 6.91816 5.95778 6.8972 6.00757L5.69063 8.87342C5.61958 9.04219 5.38042 9.04219 5.30937 8.87342L4.1028 6.00757C4.08184 5.95778 4.04222 5.91816 3.99243 5.8972L1.12658 4.69063C0.957807 4.61958 0.957807 4.38042 1.12658 4.30937L3.99243 3.1028C4.04222 3.08184 4.08184 3.04222 4.1028 2.99243L5.30937 0.126579Z" fill="#25262D"/>
</svg>
