<svg width="18" height="18" viewBox="0 0 18 18" fill="none" xmlns="http://www.w3.org/2000/svg">
<path d="M5.92282 15.7685L1 16.9992L2.23071 13.3071V2.23071C2.23071 1.9043 2.36037 1.59127 2.59117 1.36047C2.82197 1.12966 3.13501 1 3.46141 1H15.7685C16.0949 1 16.4079 1.12966 16.6387 1.36047C16.8695 1.59127 16.9992 1.9043 16.9992 2.23071V14.5378C16.9992 14.8642 16.8695 15.1772 16.6387 15.408C16.4079 15.6388 16.0949 15.7685 15.7685 15.7685H5.92282Z" stroke="#994B33" stroke-width="1.5" stroke-linecap="round" stroke-linejoin="round"/>
<path d="M9.61426 4.07617V7.76829" stroke="#994B33" stroke-width="1.5" stroke-linecap="round" stroke-linejoin="round"/>
<path d="M9.61535 12.0764C9.9552 12.0764 10.2307 11.8009 10.2307 11.4611C10.2307 11.1212 9.9552 10.8457 9.61535 10.8457C9.2755 10.8457 9 11.1212 9 11.4611C9 11.8009 9.2755 12.0764 9.61535 12.0764Z" fill="#994B33" stroke="#994B33" stroke-width="1.5" stroke-linecap="round" stroke-linejoin="round"/>
</svg>
