<svg width="18" height="18" viewBox="0 0 18 18" fill="none" xmlns="http://www.w3.org/2000/svg">
<path d="M2.23024 3.46194C1.9038 3.46194 1.59073 3.59162 1.3599 3.82245C1.12907 4.05328 0.99939 4.36636 0.99939 4.6928V15.7705C0.99939 16.0969 1.12907 16.41 1.3599 16.6408C1.59073 16.8717 1.9038 17.0014 2.23024 17.0014H15.7697C16.0961 17.0014 16.4092 16.8717 16.64 16.6408C16.8708 16.41 17.0005 16.0969 17.0005 15.7705V4.6928C17.0005 4.36636 16.8708 4.05328 16.64 3.82245C16.4092 3.59162 16.0961 3.46194 15.7697 3.46194H13.3079" stroke="#9B9B9B" stroke-width="1.42857" stroke-linecap="round" stroke-linejoin="round"/>
<path d="M4.69202 1V5.92342" stroke="#9B9B9B" stroke-width="1.42857" stroke-linecap="round" stroke-linejoin="round"/>
<path d="M13.308 1V5.92342" stroke="#9B9B9B" stroke-width="1.42857" stroke-linecap="round" stroke-linejoin="round"/>
<path d="M4.69202 3.46194H10.8463" stroke="#9B9B9B" stroke-width="1.42857" stroke-linecap="round" stroke-linejoin="round"/>
<path d="M4.69197 10.2309C5.03186 10.2309 5.30739 9.95541 5.30739 9.61552C5.30739 9.27563 5.03186 9.00009 4.69197 9.00009C4.35207 9.00009 4.07654 9.27563 4.07654 9.61552C4.07654 9.95541 4.35207 10.2309 4.69197 10.2309Z" fill="#9B9B9B" stroke="#9B9B9B" stroke-width="1.42857" stroke-linecap="round" stroke-linejoin="round"/>
<path d="M8.99995 10.2309C9.33984 10.2309 9.61538 9.95541 9.61538 9.61552C9.61538 9.27563 9.33984 9.00009 8.99995 9.00009C8.66006 9.00009 8.38452 9.27563 8.38452 9.61552C8.38452 9.95541 8.66006 10.2309 8.99995 10.2309Z" fill="#9B9B9B" stroke="#9B9B9B" stroke-width="1.42857" stroke-linecap="round" stroke-linejoin="round"/>
<path d="M13.3079 10.2309C13.6478 10.2309 13.9234 9.95541 13.9234 9.61552C13.9234 9.27563 13.6478 9.00009 13.3079 9.00009C12.968 9.00009 12.6925 9.27563 12.6925 9.61552C12.6925 9.95541 12.968 10.2309 13.3079 10.2309Z" fill="#9B9B9B" stroke="#9B9B9B" stroke-width="1.42857" stroke-linecap="round" stroke-linejoin="round"/>
<path d="M4.69197 13.9247C5.03186 13.9247 5.30739 13.6492 5.30739 13.3093C5.30739 12.9694 5.03186 12.6938 4.69197 12.6938C4.35207 12.6938 4.07654 12.9694 4.07654 13.3093C4.07654 13.6492 4.35207 13.9247 4.69197 13.9247Z" fill="#9B9B9B" stroke="#9B9B9B" stroke-width="1.42857" stroke-linecap="round" stroke-linejoin="round"/>
</svg>
