<svg width="18" height="16" viewBox="0 0 18 16" fill="none" xmlns="http://www.w3.org/2000/svg">
<path d="M15.3462 1.33203H2.65385C2.34783 1.33203 2.05434 1.44009 1.83795 1.63243C1.62157 1.82478 1.5 2.08566 1.5 2.35767V11.0756C1.5 11.3476 1.62157 11.6085 1.83795 11.8009C2.05434 11.9932 2.34783 12.1013 2.65385 12.1013H4.96154V14.6654L8.56154 12.1013H15.3462C15.6522 12.1013 15.9457 11.9932 16.162 11.8009C16.3784 11.6085 16.5 11.3476 16.5 11.0756V2.35767C16.5 2.08566 16.3784 1.82478 16.162 1.63243C15.9457 1.44009 15.6522 1.33203 15.3462 1.33203Z" stroke="#9B9B9B" stroke-width="1.5" stroke-linecap="round" stroke-linejoin="round"/>
</svg>
