<svg width="18" height="18" viewBox="0 0 18 18" fill="none" xmlns="http://www.w3.org/2000/svg">
<path d="M1.61523 4.69141H16.3855" stroke="#9B9B9B" stroke-width="1.5" stroke-linecap="round" stroke-linejoin="round"/>
<path d="M3.46094 4.69141H14.5386V15.7691C14.5386 16.0955 14.4089 16.4086 14.1781 16.6394C13.9473 16.8703 13.6342 17 13.3078 17H4.69179C4.36535 17 4.05228 16.8703 3.82145 16.6394C3.59062 16.4086 3.46094 16.0955 3.46094 15.7691V4.69141Z" stroke="#9B9B9B" stroke-width="1.5" stroke-linecap="round" stroke-linejoin="round"/>
<path d="M5.92188 4.69256V4.07714C5.92188 3.26103 6.24607 2.47835 6.82315 1.90127C7.40022 1.3242 8.1829 1 8.99901 1C9.81512 1 10.5978 1.3242 11.1749 1.90127C11.7519 2.47835 12.0761 3.26103 12.0761 4.07714V4.69256" stroke="#9B9B9B" stroke-width="1.5" stroke-linecap="round" stroke-linejoin="round"/>
<path d="M7.1543 7.1543V13.924" stroke="#9B9B9B" stroke-width="1.5" stroke-linecap="round" stroke-linejoin="round"/>
<path d="M10.8477 7.1543V13.924" stroke="#9B9B9B" stroke-width="1.5" stroke-linecap="round" stroke-linejoin="round"/>
</svg>
