<svg width="20" height="20" viewBox="0 0 20 20" fill="none" xmlns="http://www.w3.org/2000/svg">
<path d="M19.3998 6.40318C19.8214 6.92597 20.0236 7.48641 19.9978 8.06357C19.972 8.69929 19.6794 9.19699 19.4385 9.5023C19.7181 10.1798 19.8257 11.2463 18.8921 12.0744C18.208 12.6809 17.0463 12.9527 15.4372 12.8775C14.3057 12.8273 13.3591 12.6223 13.3204 12.614H13.3161C13.101 12.5763 12.8729 12.5303 12.6406 12.4801C12.6234 12.7478 12.6707 13.4128 13.1784 14.9101C13.7808 16.6918 13.7463 18.0552 13.0666 18.967C12.3523 19.9247 11.2122 20 10.8766 20C10.5539 20 10.2571 19.8703 10.0462 19.632C9.56866 19.0924 9.62459 18.097 9.68482 17.637C9.1169 16.1564 7.52499 12.5261 6.17832 11.5182C6.15251 11.5015 6.131 11.4806 6.10948 11.4596C5.71366 11.054 5.44691 10.6148 5.2662 10.23C5.01236 10.3639 4.72409 10.4391 4.41432 10.4391H1.78982C0.800257 10.4391 0 9.65705 0 8.69929V1.90297C0 0.941029 0.804559 0.163113 1.78982 0.163113H4.41432C4.79724 0.163113 5.15434 0.280218 5.44691 0.48097L6.45798 0.363865C6.61287 0.342955 9.36644 0.00418472 12.1932 0.0585537C12.7051 0.0209141 13.187 0 13.6345 0C14.4046 0 15.0758 0.0585537 15.6351 0.175659C16.9517 0.447512 17.8509 0.991219 18.3069 1.79005C18.6554 2.40067 18.6554 3.00711 18.5995 3.39189C19.4557 4.14471 19.6063 4.977 19.5762 5.56253C19.559 5.9013 19.4815 6.18988 19.3998 6.40318ZM1.78982 1.29235C1.44132 1.29235 1.16166 1.56838 1.16166 1.90297V8.70347C1.16166 9.04224 1.44562 9.3141 1.78982 9.3141H4.41432C4.76282 9.3141 5.04248 9.03806 5.04248 8.70347V1.90715C5.04248 1.56838 4.75851 1.29653 4.41432 1.29653H1.78982V1.29235ZM18.2983 6.89251C18.1176 6.70849 18.0832 6.42827 18.2209 6.21079C18.2209 6.20661 18.3973 5.91385 18.4188 5.51234C18.4489 4.96445 18.1779 4.4793 17.6099 4.06525C17.4077 3.91468 17.326 3.65537 17.412 3.42116C17.412 3.41698 17.597 2.86491 17.2959 2.34212C17.0076 1.84023 16.3665 1.48055 15.3942 1.2798C14.6154 1.11669 13.557 1.08741 12.2577 1.18779H12.1975C9.43098 1.12924 6.63438 1.48055 6.60427 1.48474H6.59996L6.16542 1.53492C6.19123 1.65203 6.20414 1.7775 6.20414 1.90297V8.70347C6.20414 8.88331 6.17402 9.05897 6.12239 9.22208C6.19984 9.5023 6.41496 10.1255 6.92265 10.6566C8.85445 12.1455 10.7432 17.1685 10.825 17.386C10.8594 17.4739 10.868 17.5701 10.8508 17.6662C10.7776 18.1347 10.8035 18.7077 10.9067 18.8791C11.1348 18.8749 11.75 18.8122 12.12 18.3145C12.5589 17.7248 12.5417 16.6708 12.0684 15.2739C11.3456 13.1451 11.2853 12.0243 11.8576 11.5307C12.1415 11.284 12.5201 11.2714 12.7955 11.3676C13.0579 11.4262 13.3075 11.4764 13.5441 11.514C13.5613 11.5182 13.5828 11.5224 13.6001 11.5266C14.9209 11.8068 17.2873 11.9783 18.109 11.2505C18.806 10.6315 18.3112 9.8118 18.2553 9.72397C18.0961 9.48975 18.1434 9.18444 18.3586 8.99624C18.3629 8.99205 18.8146 8.578 18.8361 8.02175C18.8534 7.64952 18.6727 7.26893 18.2983 6.89251Z" fill="#9B9B9B"/>
</svg>
