<svg width="20" height="20" viewBox="0 0 20 20" fill="none" xmlns="http://www.w3.org/2000/svg">
<path d="M19.9978 8.06357C20.0236 7.48641 19.8214 6.92597 19.3998 6.40318C19.4815 6.18988 19.559 5.9013 19.5762 5.56253C19.6063 4.977 19.4557 4.14471 18.5995 3.39189C18.6554 3.00711 18.6554 2.40067 18.3069 1.79005C17.8509 0.991219 16.9517 0.447512 15.6351 0.175659C15.0758 0.0585537 14.4046 0 13.6345 0C13.187 0 12.7051 0.0209122 12.1932 0.0585537C9.36644 0.00418282 6.61287 0.342953 6.45798 0.363865L5.44691 0.48097C5.15434 0.280218 4.79724 0.163113 4.41432 0.163113H4L4 10.4391H4.41432C4.72409 10.4391 5.01236 10.3639 5.2662 10.23C5.44691 10.6148 5.71366 11.054 6.10948 11.4596C6.131 11.4806 6.15251 11.5015 6.17832 11.5182C7.52499 12.5261 9.1169 16.1564 9.68482 17.637C9.62459 18.097 9.56866 19.0924 10.0462 19.632C10.2571 19.8703 10.5539 20 10.8766 20C11.2122 20 12.3523 19.9247 13.0666 18.967C13.7463 18.0552 13.7808 16.6918 13.1784 14.9101C12.6707 13.4128 12.6234 12.7478 12.6406 12.4801C12.8729 12.5303 13.101 12.5763 13.3161 12.614H13.3204C13.3631 12.6232 14.3082 12.8274 15.4372 12.8775C17.0463 12.9527 18.208 12.6809 18.8921 12.0744C19.8257 11.2463 19.7181 10.1798 19.4385 9.5023C19.6794 9.19699 19.972 8.69929 19.9978 8.06357Z" fill="#6F6F6F"/>
<path d="M3 10.4391L3 0.163113H1.78982C0.804559 0.163113 0 0.941029 0 1.90297V8.69929C0 9.65705 0.800256 10.4391 1.78982 10.4391H3Z" fill="#6F6F6F"/>
</svg>
