<svg width="20" height="20" viewBox="0 0 20 20" fill="none" xmlns="http://www.w3.org/2000/svg">
<path fill-rule="evenodd" clip-rule="evenodd" d="M7.78731 12.3456C7.60125 12.3456 7.41518 12.2836 7.27369 12.1585C6.55849 11.5317 6.16406 10.6982 6.16406 9.81195C6.16406 7.97483 7.86581 6.48047 9.95714 6.48047C10.9631 6.48047 11.9399 6.83684 12.6367 7.45856C12.9178 7.71032 12.9149 8.11346 12.628 8.36011C12.3421 8.60847 11.8828 8.60421 11.6007 8.35416C11.1753 7.97398 10.5764 7.75625 9.95714 7.75625C8.66726 7.75625 7.61772 8.67821 7.61772 9.81195C7.61772 10.3571 7.86097 10.8708 8.30094 11.257C8.58489 11.5062 8.58489 11.9093 8.30191 12.1585C8.15945 12.2836 7.97338 12.3456 7.78731 12.3456Z" fill="#4C76BE"/>
<path fill-rule="evenodd" clip-rule="evenodd" d="M10.5093 13.0879C10.1652 13.0879 9.859 12.8719 9.79503 12.564C9.72332 12.2178 9.98498 11.8853 10.3804 11.8223C11.3301 11.6709 12.0821 11.0092 12.2527 10.1749C12.3244 9.82873 12.7024 9.60079 13.0968 9.66032C13.4922 9.72241 13.7548 10.0541 13.6841 10.4011C13.4059 11.756 12.1829 12.8311 10.6401 13.0777C10.5965 13.0845 10.5519 13.0879 10.5093 13.0879Z" fill="#4C76BE"/>
<mask id="mask0_17175_35172" style="mask-type:luminance" maskUnits="userSpaceOnUse" x="0" y="2" width="16" height="13">
<path fill-rule="evenodd" clip-rule="evenodd" d="M0.267578 2.99512H15.8568V14.9858H0.267578V2.99512Z" fill="white"/>
</mask>
<g mask="url(#mask0_17175_35172)">
<path fill-rule="evenodd" clip-rule="evenodd" d="M4.77828 14.9858C4.62129 14.9858 4.46332 14.9408 4.32959 14.8497C2.69083 13.7203 1.30598 12.0643 0.327178 10.0622C0.247711 9.90058 0.247711 9.71857 0.327178 9.55782C1.31664 7.5472 2.71021 5.88273 4.35769 4.74559C7.71661 2.41262 12.1881 2.40497 15.5809 4.7626C15.8959 4.98118 15.9492 5.38263 15.7001 5.65905C15.4501 5.93377 14.9946 5.98224 14.6787 5.76281C11.8043 3.76579 8.10135 3.7726 5.25799 5.7475C3.86635 6.70859 2.67145 8.10854 1.78956 9.81128C2.66272 11.5038 3.84697 12.8953 5.22795 13.8461C5.54388 14.0639 5.59815 14.4653 5.35005 14.7417C5.20663 14.9016 4.99342 14.9858 4.77828 14.9858Z" fill="#4C76BE"/>
</g>
<mask id="mask1_17175_35172" style="mask-type:luminance" maskUnits="userSpaceOnUse" x="6" y="6" width="14" height="11">
<path fill-rule="evenodd" clip-rule="evenodd" d="M6.77734 6.49707H19.6495V16.6592H6.77734V6.49707Z" fill="white"/>
</mask>
<g mask="url(#mask1_17175_35172)">
<path fill-rule="evenodd" clip-rule="evenodd" d="M9.95856 16.6592C9.05051 16.6592 8.1473 16.53 7.27511 16.2757C6.89425 16.1642 6.68783 15.8028 6.81478 15.4685C6.94174 15.1334 7.35167 14.9556 7.73446 15.0645C8.45839 15.2763 9.20654 15.3835 9.95856 15.3835C13.2807 15.3835 16.3169 13.3065 18.1281 9.81001C17.6862 8.96035 17.1716 8.19063 16.596 7.51872C16.3547 7.2372 16.4186 6.8366 16.7394 6.62482C17.0592 6.41304 17.5156 6.47088 17.757 6.75155C18.4586 7.5689 19.0749 8.51382 19.5895 9.55656C19.67 9.71816 19.67 9.90187 19.5895 10.0626C17.5583 14.1936 13.9581 16.6592 9.95856 16.6592Z" fill="#4C76BE"/>
</g>
<mask id="mask2_17175_35172" style="mask-type:luminance" maskUnits="userSpaceOnUse" x="1" y="2" width="18" height="16">
<path fill-rule="evenodd" clip-rule="evenodd" d="M1.58984 2.46484H18.3297V17.1558H1.58984V2.46484Z" fill="white"/>
</mask>
<g mask="url(#mask2_17175_35172)">
<path fill-rule="evenodd" clip-rule="evenodd" d="M2.31643 17.1555C2.13036 17.1555 1.94429 17.0934 1.8028 16.9684C1.51886 16.7192 1.51886 16.316 1.8028 16.0668L17.0895 2.65077C17.3734 2.40157 17.8328 2.40157 18.1167 2.65077C18.4007 2.89997 18.4007 3.30397 18.1167 3.55317L2.83006 16.9684C2.68857 17.0934 2.5025 17.1555 2.31643 17.1555Z" fill="#4C76BE"/>
</g>
</svg>
