<svg width="20" height="20" viewBox="0 0 20 20" fill="none" xmlns="http://www.w3.org/2000/svg">
<g clip-path="url(#clip0_8441_116099)">
<path d="M11.0117 20H7.80891C7.27395 20 6.83875 19.5648 6.83875 19.0298V11.8057H4.97016C4.43516 11.8057 4 11.3704 4 10.8355V7.74C4 7.205 4.43516 6.76984 4.97016 6.76984H6.83875V5.21969C6.83875 3.68266 7.32137 2.375 8.2343 1.43824C9.15137 0.497266 10.433 0 11.9405 0L14.3831 0.00398437C14.9172 0.00488281 15.3516 0.440078 15.3516 0.974102V3.84828C15.3516 4.38324 14.9166 4.81844 14.3818 4.81844L12.7372 4.81902C12.2356 4.81902 12.1079 4.91957 12.0806 4.95039C12.0356 5.00156 11.982 5.14602 11.982 5.54504V6.76973H14.2582C14.4295 6.76973 14.5955 6.81199 14.7382 6.8916C15.046 7.06359 15.2373 7.38875 15.2373 7.74016L15.2361 10.8357C15.2361 11.3704 14.8009 11.8056 14.266 11.8056H11.982V19.0298C11.982 19.5648 11.5467 20 11.0117 20ZM8.01121 18.8275H10.8094V11.2809C10.8094 10.9237 11.1001 10.6331 11.4571 10.6331H14.0636L14.0647 7.94238H11.457C11.0999 7.94238 10.8094 7.65188 10.8094 7.29465V5.54508C10.8094 5.08703 10.8559 4.56609 11.2017 4.17453C11.6195 3.70121 12.2779 3.6466 12.7369 3.6466L14.1791 3.64598V1.17613L11.9396 1.1725C9.5168 1.1725 8.01125 2.7234 8.01125 5.21973V7.29461C8.01125 7.65164 7.7207 7.94234 7.36363 7.94234H5.1725V10.6331H7.36363C7.7207 10.6331 8.01125 10.9236 8.01125 11.2808L8.01121 18.8275Z" fill="#9B9B9B"/>
</g>
<defs>
<clipPath id="clip0_8441_116099">
<rect width="20" height="20" fill="white"/>
</clipPath>
</defs>
</svg>
