<svg width="14" height="13" viewBox="0 0 14 13" fill="none" xmlns="http://www.w3.org/2000/svg">
  <path d="M12.6637 4.24435C13.3121 4.34327 13.5614 5.13463 13.0877 5.60451L10.4694 8.1517L11.0928 11.7376C11.1925 12.3805 10.4943 12.8752 9.9208 12.5784L6.67913 10.872L3.41254 12.5784C2.83901 12.8752 2.14081 12.3805 2.24055 11.7376L2.86395 8.1517L0.245681 5.60451C-0.228101 5.13463 0.0212579 4.34327 0.66959 4.24435L4.33516 3.72502L5.95599 0.435917C6.25522 -0.157605 7.10304 -0.132875 7.37734 0.435917L9.02311 3.72502L12.6637 4.24435ZM9.17272 7.73129L11.6912 5.30774L8.22516 4.81314L6.67913 1.69715L5.10817 4.81314L1.64209 5.30774L4.16061 7.73129L3.56215 11.144L6.67913 9.53659L9.77118 11.144L9.17272 7.73129Z" fill="#25262D"/>
</svg>
