<svg width="16" height="20" viewBox="0 0 16 20" fill="none" xmlns="http://www.w3.org/2000/svg">
<path d="M3.556 6.36435C3.46694 7.31435 3.40444 8.9956 3.96538 9.71123C3.96538 9.71123 3.70132 7.86435 6.0685 5.54716C7.02163 4.61435 7.24194 3.3456 6.90913 2.39404C6.72007 1.85498 6.37475 1.40966 6.07475 1.09873C5.89975 0.915914 6.03413 0.614352 6.28882 0.625289C7.82944 0.694039 10.3263 1.12216 11.3873 3.78466C11.8529 4.95341 11.8873 6.16123 11.6654 7.38935C11.5248 8.17373 11.0248 9.91748 12.1654 10.1315C12.9794 10.2847 13.3732 9.63779 13.5498 9.17216C13.6232 8.97841 13.8779 8.92998 14.0154 9.08466C15.3904 10.6487 15.5076 12.4909 15.2232 14.0768C14.6732 17.1425 11.5685 19.3737 8.48413 19.3737C4.631 19.3737 1.56381 17.169 0.768502 13.1784C0.44819 11.5675 0.61069 8.37998 3.09507 6.12998C3.27944 5.96123 3.581 6.11123 3.556 6.36435Z" fill="url(#paint0_radial_848_7688)"/>
<path d="M9.89229 12.0975C8.47198 10.2694 9.10792 8.18347 9.45636 7.35222C9.50323 7.24285 9.37823 7.13972 9.27979 7.20691C8.66886 7.62253 7.41729 8.60066 6.83448 9.97722C6.04542 11.8382 6.10167 12.7491 6.56886 13.8616C6.85011 14.5319 6.52354 14.6741 6.35948 14.6991C6.20011 14.7241 6.05323 14.6178 5.93604 14.5069C5.60011 14.1866 5.35792 13.7694 5.24229 13.3194C5.21729 13.2225 5.09073 13.196 5.03292 13.2757C4.59542 13.8803 4.36886 14.8507 4.35792 15.5366C4.32354 17.6569 6.07511 19.3757 8.19386 19.3757C10.8642 19.3757 12.8095 16.4225 11.2751 13.9538C10.8298 13.235 10.411 12.7647 9.89229 12.0975Z" fill="url(#paint1_radial_848_7688)"/>
<defs>
<radialGradient id="paint0_radial_848_7688" cx="0" cy="0" r="1" gradientUnits="userSpaceOnUse" gradientTransform="translate(7.72101 19.4223) rotate(-179.751) scale(11.0293 18.0969)">
<stop offset="0.3144" stop-color="#FF9800"/>
<stop offset="0.6616" stop-color="#FF6D00"/>
<stop offset="0.9715" stop-color="#F44336"/>
</radialGradient>
<radialGradient id="paint1_radial_848_7688" cx="0" cy="0" r="1" gradientUnits="userSpaceOnUse" gradientTransform="translate(8.34071 8.44736) rotate(90.5787) scale(11.54 8.68475)">
<stop offset="0.2141" stop-color="#FFF176"/>
<stop offset="0.3275" stop-color="#FFF27D"/>
<stop offset="0.4868" stop-color="#FFF48F"/>
<stop offset="0.6722" stop-color="#FFF7AD"/>
<stop offset="0.7931" stop-color="#FFF9C4"/>
<stop offset="0.8221" stop-color="#FFF8BD" stop-opacity="0.804"/>
<stop offset="0.8627" stop-color="#FFF6AB" stop-opacity="0.529"/>
<stop offset="0.9101" stop-color="#FFF38D" stop-opacity="0.2088"/>
<stop offset="0.9409" stop-color="#FFF176" stop-opacity="0"/>
</radialGradient>
</defs>
</svg>
