<svg width="18" height="18" viewBox="0 0 18 18" fill="none" xmlns="http://www.w3.org/2000/svg">
<path d="M2.24326 17L15.781 17C16.4607 17 17.0117 16.449 17.0117 15.7693L17.0117 2.23154C17.0117 1.55184 16.4607 1.00083 15.781 1.00083L2.24326 1.00083C1.56356 1.00083 1.01255 1.55184 1.01255 2.23154L1.01255 15.7693C1.01255 16.449 1.56356 17 2.24326 17Z" stroke="#9B9B9B" stroke-width="1.5" stroke-linecap="round" stroke-linejoin="round"/>
<path d="M11.769 8.38559C12.9584 8.38559 13.9227 7.42133 13.9227 6.23186C13.9227 5.04238 12.9584 4.07812 11.769 4.07812C10.5795 4.07812 9.61523 5.04238 9.61523 6.23186C9.61523 7.42133 10.5795 8.38559 11.769 8.38559Z" stroke="#9B9B9B" stroke-width="1.5" stroke-linecap="round" stroke-linejoin="round"/>
<path d="M11.9533 16.9998C11.557 14.8892 10.4237 12.988 8.75557 11.6354C7.08746 10.2829 4.99305 9.56705 2.84606 9.6156C2.22661 9.61394 1.60844 9.67164 1 9.7879" stroke="#9B9B9B" stroke-width="1.5" stroke-linecap="round" stroke-linejoin="round"/>
<path d="M16.9992 12.5827C16.0079 12.248 14.9687 12.0776 13.9224 12.0781C12.5981 12.0753 11.2872 12.3433 10.0703 12.8658" stroke="#9B9B9B" stroke-width="1.5" stroke-linecap="round" stroke-linejoin="round"/>
</svg>
