<svg width="20" height="12" viewBox="0 0 20 12" fill="none" xmlns="http://www.w3.org/2000/svg">
<path d="M2.40433 11.804H0.5L4.77893 0H6.85162L11.1305 11.804H9.22622L5.86462 2.14409H5.77173L2.40433 11.804ZM2.72365 7.18156H8.90109V8.68011H2.72365V7.18156Z" fill="#9B9B9B"/>
<path d="M15.0992 12C14.534 12 14.0231 11.8963 13.5664 11.6888C13.1097 11.4774 12.7478 11.1719 12.4807 10.7723C12.2175 10.3727 12.0859 9.8828 12.0859 9.30259C12.0859 8.80307 12.1827 8.39193 12.3762 8.06916C12.5697 7.7464 12.831 7.49087 13.16 7.30259C13.489 7.11431 13.8567 6.97214 14.2631 6.87608C14.6695 6.78002 15.0837 6.70701 15.5056 6.65706C16.0397 6.59558 16.4732 6.54563 16.8061 6.5072C17.1389 6.46494 17.3809 6.39769 17.5318 6.30548C17.6828 6.21326 17.7582 6.0634 17.7582 5.85591V5.81556C17.7582 5.3122 17.615 4.92219 17.3286 4.64553C17.0461 4.36888 16.6242 4.23055 16.0629 4.23055C15.4785 4.23055 15.0179 4.35927 14.6811 4.61671C14.3483 4.87032 14.118 5.15274 13.9902 5.46398L12.3588 5.0951C12.5523 4.55716 12.8349 4.12296 13.2064 3.79251C13.5819 3.45821 14.0135 3.21614 14.5011 3.06628C14.9888 2.91258 15.5017 2.83574 16.0397 2.83574C16.3958 2.83574 16.7732 2.878 17.1718 2.96254C17.5744 3.04323 17.9498 3.19308 18.2982 3.4121C18.6504 3.63112 18.9388 3.94428 19.1633 4.35158C19.3878 4.75504 19.5 5.27954 19.5 5.92507V11.804H17.8047V10.5937H17.735C17.6228 10.8165 17.4544 11.0355 17.2299 11.2507C17.0054 11.4659 16.7171 11.6446 16.3648 11.7867C16.0126 11.9289 15.5907 12 15.0992 12ZM15.4765 10.6167C15.9565 10.6167 16.3668 10.5226 16.7074 10.3343C17.0519 10.146 17.3131 9.9001 17.4912 9.59654C17.6731 9.28914 17.764 8.96061 17.764 8.61095V7.46974C17.7021 7.53122 17.5821 7.58886 17.4041 7.64265C17.2299 7.6926 17.0306 7.73679 16.8061 7.77522C16.5816 7.8098 16.3629 7.84246 16.15 7.8732C15.9371 7.9001 15.7591 7.92315 15.6159 7.94236C15.2791 7.98463 14.9714 8.05571 14.6927 8.15562C14.4179 8.25552 14.1973 8.39962 14.0309 8.5879C13.8683 8.77233 13.787 9.01825 13.787 9.32565C13.787 9.75216 13.9457 10.0749 14.2631 10.2939C14.5805 10.5091 14.985 10.6167 15.4765 10.6167Z" fill="#9B9B9B"/>
</svg>
