<svg width="18" height="18" viewBox="0 0 18 18" fill="none" xmlns="http://www.w3.org/2000/svg">
<path d="M13 2H15.4C15.8243 2 16.2313 2.1317 16.5314 2.36612C16.8314 2.60054 17 2.91848 17 3.25V15.75C17 16.0815 16.8314 16.3995 16.5314 16.6339C16.2313 16.8683 15.8243 17 15.4 17H2.6C2.17565 17 1.76869 16.8683 1.46863 16.6339C1.16857 16.3995 1 16.0815 1 15.75V3.25C1 2.91848 1.16857 2.60054 1.46863 2.36612C1.76869 2.1317 2.17565 2 2.6 2H5" stroke="#9B9B9B" stroke-width="1.5" stroke-linecap="round" stroke-linejoin="round"/>
<path d="M10.8472 1H7.15468C6.4749 1 5.92383 1.55107 5.92383 2.23086V2.84628C5.92383 3.52607 6.4749 4.07714 7.15468 4.07714H10.8472C11.527 4.07714 12.0781 3.52607 12.0781 2.84628V2.23086C12.0781 1.55107 11.527 1 10.8472 1Z" stroke="#9B9B9B" stroke-width="1.5" stroke-linecap="round" stroke-linejoin="round"/>
<path d="M5 7H6" stroke="#9B9B9B" stroke-width="1.5" stroke-linecap="round" stroke-linejoin="round"/>
<path d="M5 10H6" stroke="#9B9B9B" stroke-width="1.5" stroke-linecap="round" stroke-linejoin="round"/>
<path d="M5 13H6" stroke="#9B9B9B" stroke-width="1.5" stroke-linecap="round" stroke-linejoin="round"/>
</svg>
