<svg width="18" height="18" viewBox="0 0 18 18" fill="none" xmlns="http://www.w3.org/2000/svg">
<path d="M15.7685 1H2.23071C1.55101 1 1 1.55101 1 2.23071V15.7685C1 16.4482 1.55101 16.9992 2.23071 16.9992H15.7685C16.4482 16.9992 16.9992 16.4482 16.9992 15.7685V2.23071C16.9992 1.55101 16.4482 1 15.7685 1Z" stroke="#9B9B9B" stroke-width="1.5" stroke-linecap="round" stroke-linejoin="round"/>
<path d="M7.14062 13.3817V8.66813C7.14406 8.5957 7.16523 8.52521 7.20227 8.46286C7.23931 8.40052 7.29108 8.34822 7.35305 8.31055C7.41502 8.27288 7.48529 8.251 7.55769 8.24683C7.63008 8.24265 7.7024 8.25632 7.76828 8.28661L11.8542 10.6373C11.9204 10.678 11.975 10.7351 12.0129 10.8029C12.0508 10.8708 12.0707 10.9472 12.0707 11.0249C12.0707 11.1027 12.0508 11.1791 12.0129 11.2469C11.975 11.3148 11.9204 11.3718 11.8542 11.4126L7.76828 13.7756C7.70126 13.8031 7.62863 13.8143 7.55642 13.8081C7.48422 13.8019 7.41453 13.7786 7.35314 13.7401C7.29176 13.7016 7.24045 13.649 7.20349 13.5867C7.16653 13.5243 7.14498 13.4541 7.14062 13.3817Z" stroke="#9B9B9B" stroke-width="1.5" stroke-linecap="round" stroke-linejoin="round"/>
<path d="M1 5.30664H16.9992" stroke="#9B9B9B" stroke-width="1.5" stroke-linecap="round" stroke-linejoin="round"/>
<path d="M5.30664 5.30747L7.1527 1" stroke="#9B9B9B" stroke-width="1.5" stroke-linecap="round" stroke-linejoin="round"/>
<path d="M10.8457 5.30747L12.6918 1" stroke="#9B9B9B" stroke-width="1.5" stroke-linecap="round" stroke-linejoin="round"/>
</svg>
