<svg width="14" height="20" viewBox="0 0 14 20" fill="none" xmlns="http://www.w3.org/2000/svg">
<path d="M7.09492 7.86641C6.95586 8.05703 6.91836 8.37578 7.21836 8.39453C7.5168 8.41172 13.6168 8.36641 13.6168 8.36641C13.6168 8.36641 9.25898 12.3711 7.94023 13.5664C6.62148 14.7617 2.2543 18.6336 1.96055 18.907C1.67305 19.1758 1.41211 19.4227 1.30586 19.3883C1.28867 19.3836 1.2668 19.2914 1.67773 18.6148C2.05273 17.9977 5.65273 11.9648 5.79336 11.7367C5.93398 11.5086 6.05742 11.3148 6.12773 11.2086C6.19805 11.1023 6.42617 10.5227 5.95117 10.5227C5.47617 10.5227 0.0136719 10.6633 0.0136719 10.6633C0.0136719 10.6633 3.78711 7.46172 4.87773 6.60078C5.96836 5.73984 12.1496 0.496094 12.3574 0.496094C12.5652 0.496094 7.23555 7.67422 7.09492 7.86641Z" fill="#FFC927"/>
</svg>
