<svg width="20" height="20" viewBox="0 0 20 20" fill="none" xmlns="http://www.w3.org/2000/svg">
<path d="M19.9978 11.9364C20.0236 12.5136 19.8214 13.074 19.3998 13.5968C19.4815 13.8101 19.559 14.0987 19.5762 14.4375C19.6063 15.023 19.4557 15.8553 18.5995 16.6081C18.6554 16.9929 18.6554 17.5993 18.3069 18.21C17.8509 19.0088 16.9517 19.5525 15.6351 19.8243C15.0758 19.9414 14.4046 20 13.6345 20C13.187 20 12.7051 19.9791 12.1932 19.9414C9.36644 19.9958 6.61287 19.657 6.45798 19.6361L5.44691 19.519C5.15434 19.7198 4.79724 19.8369 4.41432 19.8369H4L4 9.56085H4.41432C4.72409 9.56085 5.01236 9.63614 5.2662 9.76997C5.44691 9.38519 5.71366 8.94605 6.10948 8.54036C6.131 8.51945 6.15251 8.49854 6.17832 8.48181C7.52499 7.47386 9.1169 3.84358 9.68482 2.36303C9.62459 1.90297 9.56866 0.90757 10.0462 0.368047C10.2571 0.129653 10.5539 0 10.8766 0C11.2122 0 12.3523 0.0752831 13.0666 1.03304C13.7463 1.94479 13.7808 3.30824 13.1784 5.08992C12.6707 6.5872 12.6234 7.2522 12.6406 7.51987C12.8729 7.46968 13.101 7.42367 13.3161 7.38603H13.3204C13.3631 7.3768 14.3082 7.17262 15.4372 7.12254C17.0463 7.04726 18.208 7.31911 18.8921 7.92555C19.8257 8.75366 19.7181 9.82016 19.4385 10.4977C19.6794 10.803 19.972 11.3007 19.9978 11.9364Z" fill="#4C76BE"/>
<path d="M3 9.56085L3 19.8369H1.78982C0.804559 19.8369 0 19.059 0 18.097V11.3007C0 10.343 0.800256 9.56085 1.78982 9.56085H3Z" fill="#4C76BE"/>
</svg>
