<svg width="20" height="20" viewBox="0 0 20 20" fill="none" xmlns="http://www.w3.org/2000/svg">
<path d="M2.79925 5.20006C3.13063 5.20006 3.39927 4.93141 3.39927 4.60003C3.39927 4.26864 3.13063 4 2.79925 4C2.46786 4 2.19922 4.26864 2.19922 4.60003C2.19922 4.93141 2.46786 5.20006 2.79925 5.20006Z" fill="#9B9B9B" stroke="#9B9B9B" stroke-width="1.5" stroke-linecap="round" stroke-linejoin="round"/>
<path d="M6.99902 4.59961H17.7995" stroke="#9B9B9B" stroke-width="1.5" stroke-linecap="round" stroke-linejoin="round"/>
<path d="M2.79925 10.6004C3.13063 10.6004 3.39927 10.3318 3.39927 10.0004C3.39927 9.66903 3.13063 9.40039 2.79925 9.40039C2.46786 9.40039 2.19922 9.66903 2.19922 10.0004C2.19922 10.3318 2.46786 10.6004 2.79925 10.6004Z" fill="#9B9B9B" stroke="#9B9B9B" stroke-width="1.5" stroke-linecap="round" stroke-linejoin="round"/>
<path d="M6.99902 10H17.7995" stroke="#9B9B9B" stroke-width="1.5" stroke-linecap="round" stroke-linejoin="round"/>
<path d="M2.79925 16.0008C3.13063 16.0008 3.39927 15.7322 3.39927 15.4008C3.39927 15.0694 3.13063 14.8008 2.79925 14.8008C2.46786 14.8008 2.19922 15.0694 2.19922 15.4008C2.19922 15.7322 2.46786 16.0008 2.79925 16.0008Z" fill="#9B9B9B" stroke="#9B9B9B" stroke-width="1.5" stroke-linecap="round" stroke-linejoin="round"/>
<path d="M6.99902 15.4004H17.7995" stroke="#9B9B9B" stroke-width="1.5" stroke-linecap="round" stroke-linejoin="round"/>
</svg>
