<svg width="20" height="20" viewBox="0 0 20 20" fill="none" xmlns="http://www.w3.org/2000/svg">
  <path fill-rule="evenodd" clip-rule="evenodd" d="M10.0001 16.9989C10.0001 16.9989 14.8459 10.5271 14.8459 7.84579C14.8459 6.5606 14.3353 5.32806 13.4266 4.4193C12.5178 3.51054 11.2853 3 10.0001 3C8.7149 3 7.48236 3.51054 6.57359 4.4193C5.66483 5.32806 5.1543 6.5606 5.1543 7.84579C5.1543 10.5271 10.0001 16.9989 10.0001 16.9989ZM12.0001 8C12.0001 9.10457 11.1047 10 10.0001 10C8.89555 10 8.00012 9.10457 8.00012 8C8.00012 6.89543 8.89555 6 10.0001 6C11.1047 6 12.0001 6.89543 12.0001 8Z" fill="#9B9B9B"/>
</svg>
