<svg width="18" height="18" viewBox="0 0 18 18" fill="none" xmlns="http://www.w3.org/2000/svg">
<path d="M4.69233 9.6167C5.03222 9.6167 5.30776 9.34117 5.30776 9.00128C5.30776 8.66139 5.03222 8.38585 4.69233 8.38585C4.35244 8.38585 4.0769 8.66139 4.0769 9.00128C4.0769 9.34117 4.35244 9.6167 4.69233 9.6167Z" fill="#9B9B9B" stroke="#9B9B9B" stroke-width="1.5" stroke-linecap="round" stroke-linejoin="round"/>
<path d="M8.69258 9.6167C9.03247 9.6167 9.308 9.34117 9.308 9.00128C9.308 8.66139 9.03247 8.38585 8.69258 8.38585C8.35268 8.38585 8.07715 8.66139 8.07715 9.00128C8.07715 9.34117 8.35268 9.6167 8.69258 9.6167Z" fill="#9B9B9B" stroke="#9B9B9B" stroke-width="1.5" stroke-linecap="round" stroke-linejoin="round"/>
<path d="M12.6929 9.6167C13.0328 9.6167 13.3084 9.34117 13.3084 9.00128C13.3084 8.66139 13.0328 8.38585 12.6929 8.38585C12.3531 8.38585 12.0775 8.66139 12.0775 9.00128C12.0775 9.34117 12.3531 9.6167 12.6929 9.6167Z" fill="#9B9B9B" stroke="#9B9B9B" stroke-width="1.5" stroke-linecap="round" stroke-linejoin="round"/>
<path d="M9.00056 1C7.55337 1.00045 6.1334 1.39343 4.89189 2.13708C3.65038 2.88073 2.63383 3.94721 1.95051 5.22291C1.26719 6.49862 0.94268 7.93578 1.01156 9.38133C1.08043 10.8269 1.54011 12.2267 2.34163 13.4316L1 17.0011L5.49262 16.1888C6.57443 16.7174 7.76161 16.9951 8.96566 17.001C10.1697 17.007 11.3596 16.7411 12.4466 16.2232C13.5336 15.7053 14.4896 14.9487 15.2435 14.0099C15.9974 13.071 16.5297 11.9741 16.8006 10.8009C17.0716 9.62776 17.0742 8.40855 16.8084 7.23419C16.5426 6.05984 16.0151 4.96063 15.2653 4.01851C14.5155 3.07638 13.5628 2.31565 12.478 1.793C11.3933 1.27036 10.2046 0.999291 9.00056 1Z" stroke="#9B9B9B" stroke-width="1.5" stroke-linecap="round" stroke-linejoin="round"/>
</svg>
