<svg width="16" height="16" viewBox="0 0 16 16" fill="none" xmlns="http://www.w3.org/2000/svg">
  <path fill-rule="evenodd" clip-rule="evenodd" d="M10.6666 8C10.6666 9.47276 9.47274 10.6667 7.99998 10.6667C6.52722 10.6667 5.33331 9.47276 5.33331 8C5.33331 6.52724 6.52722 5.33333 7.99998 5.33333C9.47274 5.33333 10.6666 6.52724 10.6666 8ZM9.33331 8C9.33331 8.73638 8.73636 9.33333 7.99998 9.33333C7.2636 9.33333 6.66665 8.73638 6.66665 8C6.66665 7.26362 7.2636 6.66667 7.99998 6.66667C8.73636 6.66667 9.33331 7.26362 9.33331 8Z" fill="#25262D"/>
  <path fill-rule="evenodd" clip-rule="evenodd" d="M7.99998 2C11.7277 2 14.8599 4.54955 15.7479 8C14.8599 11.4505 11.7277 14 7.99998 14C4.2723 14 1.1401 11.4505 0.252014 8C1.1401 4.54955 4.2723 2 7.99998 2ZM7.99998 12.6667C5.01627 12.6667 2.48752 10.7054 1.63813 8C2.48752 5.29458 5.01627 3.33333 7.99998 3.33333C10.9837 3.33333 13.5124 5.29458 14.3618 8C13.5124 10.7054 10.9837 12.6667 7.99998 12.6667Z" fill="#25262D"/>
</svg>
