<svg width="20" height="20" viewBox="0 0 20 20" fill="none" xmlns="http://www.w3.org/2000/svg">
<path d="M7.54025 16.4493L2 18L3.55127 12.4619M7.54025 16.4493L3.55127 12.4619M7.54025 16.4493L16.3731 7.57689M3.55127 12.4619L12.4279 3.63177M12.4279 3.63177L13.6961 2.37028C13.8107 2.25307 13.9477 2.15993 14.0988 2.09634C14.25 2.03276 14.4124 2 14.5764 2C14.7404 2 14.9027 2.03276 15.0539 2.09634C15.2051 2.15993 15.342 2.25307 15.4567 2.37028L17.6358 4.5609C17.7512 4.67531 17.8428 4.81143 17.9053 4.9614C17.9678 5.11137 18 5.27223 18 5.43469C18 5.59716 17.9678 5.75801 17.9053 5.90799C17.8428 6.05796 17.7512 6.19407 17.6358 6.30848L16.3731 7.57689M12.4279 3.63177L16.3731 7.57689" stroke="#9B9B9B" stroke-width="1.5" stroke-linecap="round" stroke-linejoin="round"/>
</svg>
