<svg width="25" height="24" viewBox="0 0 25 24" fill="none" xmlns="http://www.w3.org/2000/svg">
<path d="M12.3748 21.6014C17.6771 21.6014 21.9755 17.303 21.9755 12.0007C21.9755 6.69839 17.6771 2.40002 12.3748 2.40002C7.07254 2.40002 2.77417 6.69839 2.77417 12.0007C2.77417 17.303 7.07254 21.6014 12.3748 21.6014Z" stroke="#9B9B9B" stroke-width="1.5" stroke-linecap="round" stroke-linejoin="round"/>
<path d="M10.1592 9.78518C10.1592 9.34699 10.2891 8.91864 10.5326 8.55429C10.776 8.18995 11.122 7.90598 11.5269 7.73829C11.9317 7.5706 12.3772 7.52673 12.8069 7.61221C13.2367 7.6977 13.6315 7.90871 13.9413 8.21856C14.2512 8.52841 14.4622 8.92318 14.5477 9.35295C14.6332 9.78272 14.5893 10.2282 14.4216 10.633C14.2539 11.0379 13.97 11.3839 13.6056 11.6273C13.2413 11.8708 12.8129 12.0007 12.3747 12.0007V13.4777" stroke="#9B9B9B" stroke-width="1.5" stroke-linecap="round" stroke-linejoin="round"/>
<path d="M12.5118 17.1318L12.5118 17.1318C12.4464 17.1589 12.3745 17.166 12.3051 17.1522C12.2357 17.1384 12.1719 17.1043 12.1219 17.0543C12.0718 17.0043 12.0378 16.9405 12.024 16.8711C12.0102 16.8017 12.0172 16.7298 12.0443 16.6644C12.0714 16.599 12.1173 16.5432 12.1761 16.5038C12.2336 16.4654 12.3009 16.4445 12.37 16.4436C12.4653 16.4461 12.5561 16.4851 12.6236 16.5526C12.6911 16.6201 12.7301 16.7109 12.7326 16.8062C12.7317 16.8752 12.7107 16.9426 12.6723 17.0001L13.2959 17.4168L12.6723 17.0001C12.633 17.0589 12.5771 17.1048 12.5118 17.1318Z" fill="#9B9B9B" stroke="#9B9B9B" stroke-width="1.5"/>
</svg>
