<svg width="20" height="18" viewBox="0 0 20 18" fill="none" xmlns="http://www.w3.org/2000/svg">
<path d="M1.25 17.125C1.20234 17.125 1.15422 17.1195 1.10656 17.1086C0.969548 17.0761 0.847492 16.9983 0.760113 16.8879C0.672733 16.7775 0.625133 16.6408 0.625 16.5C0.625 10.8206 1.34344 6.09717 10 5.88233V1.49999C10 1.37847 10.0355 1.2596 10.102 1.15791C10.1685 1.05622 10.2632 0.976131 10.3745 0.927438C10.4859 0.878744 10.609 0.86356 10.7288 0.883743C10.8486 0.903927 10.96 0.958603 11.0492 1.04108L19.1742 8.54108C19.3023 8.65874 19.375 8.82546 19.375 8.99999C19.375 9.17452 19.3023 9.34124 19.1742 9.45905L11.0492 16.959C10.9601 17.0418 10.8487 17.0967 10.7287 17.1169C10.6088 17.1371 10.4855 17.1217 10.3742 17.0726C10.263 17.0239 10.1683 16.9437 10.1019 16.842C10.0354 16.7403 10 16.6215 10 16.5V12.1323C4.06187 12.2745 2.96625 14.4651 1.80906 16.7795C1.75718 16.8834 1.67738 16.9707 1.57863 17.0317C1.47988 17.0927 1.36608 17.125 1.25 17.125ZM10.625 10.875C10.9705 10.875 11.25 11.1545 11.25 11.5V15.0723L17.8284 8.99999L11.25 2.92764V6.49999C11.25 6.84546 10.9705 7.12499 10.625 7.12499C3.72062 7.12499 2.23391 9.7953 1.94156 14.0605C3.23609 12.3215 5.4425 10.875 10.625 10.875Z" fill="#9B9B9B"/>
</svg>
