<svg width="21" height="15" viewBox="0 0 21 15" fill="none" xmlns="http://www.w3.org/2000/svg">
<path fill-rule="evenodd" clip-rule="evenodd" d="M10.4491 4.63477C9.12072 4.63477 8.04102 5.71547 8.04102 7.04388C8.04102 8.3713 9.12072 9.45101 10.4491 9.45101C11.7775 9.45101 12.8583 8.3713 12.8583 7.04388C12.8583 5.71547 11.7775 4.63477 10.4491 4.63477ZM10.4493 10.9494C8.29487 10.9494 6.54297 9.19747 6.54297 7.04405C6.54297 4.88962 8.29487 3.13672 10.4493 3.13672C12.6037 3.13672 14.3566 4.88962 14.3566 7.04405C14.3566 9.19747 12.6037 10.9494 10.4493 10.9494Z" fill="#9B9B9B"/>
<mask id="mask0_3157_34480" style="mask-type:luminance" maskUnits="userSpaceOnUse" x="0" y="0" width="21" height="15">
<path fill-rule="evenodd" clip-rule="evenodd" d="M0.461914 0H20.4379V14.0882H0.461914V0Z" fill="white"/>
</mask>
<g mask="url(#mask0_3157_34480)">
<path fill-rule="evenodd" clip-rule="evenodd" d="M2.0293 7.04399C3.88707 10.6384 7.01633 12.7755 10.4492 12.7763C13.8821 12.7755 17.0114 10.6384 18.8692 7.04399C17.0114 3.45044 13.8821 1.31337 10.4492 1.3125C7.01733 1.31337 3.88707 3.45044 2.0293 7.04399ZM10.4517 14.0888H10.4477H10.4467C6.31566 14.0862 2.6061 11.5502 0.522591 7.30323C0.441688 7.13789 0.441688 6.95069 0.522591 6.78536C2.6061 2.53923 6.31666 0.00328038 10.4467 0.000656077C10.4487 -0.000218692 10.4487 -0.000218692 10.4497 0.000656077C10.4517 -0.000218692 10.4517 -0.000218692 10.4527 0.000656077C14.5838 0.00328038 18.2933 2.53923 20.3768 6.78536C20.4587 6.95069 20.4587 7.13789 20.3768 7.30323C18.2943 11.5502 14.5838 14.0862 10.4527 14.0888H10.4517Z" fill="#9B9B9B"/>
</g>
</svg>
