<svg width="20" height="15" viewBox="0 0 20 15" fill="none" xmlns="http://www.w3.org/2000/svg">
<path fill-rule="evenodd" clip-rule="evenodd" d="M9.99992 4.63492C8.67151 4.63492 7.5918 5.71563 7.5918 7.04404C7.5918 8.37145 8.67151 9.45116 9.99992 9.45116C11.3283 9.45116 12.409 8.37145 12.409 7.04404C12.409 5.71563 11.3283 4.63492 9.99992 4.63492ZM10.0001 10.9495C7.84565 10.9495 6.09375 9.19762 6.09375 7.0442C6.09375 4.88977 7.84565 3.13687 10.0001 3.13687C12.1545 3.13687 13.9074 4.88977 13.9074 7.0442C13.9074 9.19762 12.1545 10.9495 10.0001 10.9495Z" fill="#4C76BE"/>
<mask id="mask0_1675_2302" style="mask-type:luminance" maskUnits="userSpaceOnUse" x="0" y="0" width="20" height="15">
<path fill-rule="evenodd" clip-rule="evenodd" d="M0.0126953 0H19.9887V14.0882H0.0126953V0Z" fill="white"/>
</mask>
<g mask="url(#mask0_1675_2302)">
<path fill-rule="evenodd" clip-rule="evenodd" d="M1.58008 7.04399C3.43786 10.6384 6.56711 12.7755 10 12.7763C13.4329 12.7755 16.5622 10.6384 18.4199 7.04399C16.5622 3.45044 13.4329 1.31337 10 1.3125C6.56811 1.31337 3.43786 3.45044 1.58008 7.04399V7.04399ZM10.0025 14.0888H9.9985H9.9975C5.86644 14.0862 2.15688 11.5502 0.0733727 7.30323C-0.0075305 7.13789 -0.0075305 6.95069 0.0733727 6.78536C2.15688 2.53923 5.86744 0.00328038 9.9975 0.000656077C9.9995 -0.000218692 9.9995 -0.000218692 10.0005 0.000656077C10.0025 -0.000218692 10.0025 -0.000218692 10.0035 0.000656077C14.1346 0.00328038 17.8441 2.53923 19.9276 6.78536C20.0095 6.95069 20.0095 7.13789 19.9276 7.30323C17.8451 11.5502 14.1346 14.0862 10.0035 14.0888H10.0025Z" fill="#4C76BE"/>
</g>
</svg>
