<svg width="20" height="16" viewBox="0 0 20 16" fill="none" xmlns="http://www.w3.org/2000/svg">
<path d="M18.8578 0.292215C18.7119 0.158687 18.5331 0.066409 18.3397 0.02486C18.1463 -0.0166889 17.9454 -0.0060109 17.7575 0.0557972L1.54534 5.4C1.10351 5.54563 0.80389 5.94004 0.78203 6.4047C0.760207 6.8694 1.02147 7.29019 1.44764 7.4767L5.45702 9.23091L6.6667 14.8414C6.71694 15.0745 6.83524 15.2821 7.08584 15.3459C7.33933 15.4105 7.51842 15.2719 7.70755 15.1303L10.6829 12.9025L14.1612 15.7488C14.3638 15.9147 14.6114 16.0012 14.8639 16.0012C14.9862 16.0011 15.1077 15.9809 15.2235 15.9415C15.5896 15.8174 15.861 15.5186 15.9495 15.1423L19.1893 1.36768C19.2345 1.17512 19.2276 0.974014 19.1693 0.78501C19.1111 0.596005 19.0036 0.425917 18.8578 0.292215ZM7.96673 10.2361C7.96475 10.2408 7.96281 10.2461 7.96097 10.2524L7.29028 12.5956L6.54181 9.12428L11.6885 6.26475L8.09018 10.0272C8.03375 10.0866 7.99154 10.158 7.96673 10.2361ZM8.1796 13.4241L8.48422 12.3597L8.77559 11.3417L9.81962 12.1961L8.1796 13.4241ZM18.1352 1.1197L14.8954 14.8943C14.8938 14.9012 14.8916 14.9106 14.8758 14.916C14.8601 14.9213 14.8524 14.9152 14.847 14.9107L11.0409 11.7961L11.0406 11.7959L9.27713 10.3528L14.9426 4.42894C15.0322 4.33531 15.0852 4.21268 15.092 4.08331C15.0988 3.95394 15.0591 3.82641 14.9799 3.72386C14.9007 3.6213 14.7874 3.55053 14.6605 3.5244C14.5336 3.49826 14.4016 3.5185 14.2883 3.58144L5.89932 8.24242L1.88173 6.48457C1.86948 6.47924 1.86275 6.47625 1.86372 6.45555C1.86469 6.43491 1.87168 6.43257 1.88435 6.42839L18.0965 1.08423C18.1043 1.08167 18.1132 1.07872 18.1262 1.0906C18.1393 1.10256 18.1371 1.11163 18.1352 1.1197Z" fill="#9B9B9B"/>
</svg>
