<svg width="25" height="24" viewBox="0 0 25 24" fill="none" xmlns="http://www.w3.org/2000/svg">
<path d="M22.1234 6.96721C22.0948 6.81249 22.0341 6.66549 21.945 6.53577C21.856 6.40605 21.7406 6.2965 21.6064 6.21423L18.6525 9.16711C18.5147 9.31 18.3496 9.42366 18.1668 9.50129C17.9841 9.57893 17.7876 9.61894 17.5891 9.61894C17.3906 9.61894 17.1941 9.57893 17.0114 9.50129C16.8286 9.42366 16.6635 9.31 16.5257 9.16711L15.4032 8.16313C15.1326 7.88714 14.981 7.51608 14.981 7.12962C14.981 6.74316 15.1326 6.3721 15.4032 6.09611L18.3571 3.14323C18.2927 2.99195 18.1958 2.85667 18.0733 2.74696C17.9508 2.63726 17.8057 2.5558 17.6482 2.50836C16.6175 2.3029 15.5498 2.39085 14.5667 2.7622C13.5836 3.13354 12.7245 3.77337 12.0873 4.60882C11.4501 5.44428 11.0604 6.4418 10.9625 7.48781C10.8646 8.53383 11.0624 9.58631 11.5335 10.5254L3.46929 18.513C3.32861 18.6505 3.21684 18.8147 3.14052 18.996C3.06421 19.1773 3.0249 19.3719 3.0249 19.5686C3.0249 19.7653 3.06421 19.96 3.14052 20.1413C3.21684 20.3226 3.32861 20.4868 3.46929 20.6243L4.00099 21.1558C4.13855 21.2964 4.30282 21.4082 4.48416 21.4844C4.66551 21.5607 4.86028 21.6 5.05703 21.6C5.25377 21.6 5.44854 21.5607 5.62989 21.4844C5.81123 21.4082 5.97551 21.2964 6.11306 21.1558L14.1773 13.1092C15.117 13.5568 16.1625 13.735 17.1975 13.6241C18.2325 13.5132 19.2164 13.1175 20.0398 12.481C20.8633 11.8445 21.494 10.9921 21.8618 10.0187C22.2297 9.0453 22.3202 7.98898 22.1234 6.96721Z" stroke="#9B9B9B" stroke-width="1.5" stroke-linecap="round" stroke-linejoin="round"/>
</svg>
