<svg width="17" height="18" viewBox="0 0 17 18" fill="none" xmlns="http://www.w3.org/2000/svg">
<path d="M16.3884 10.4171C16.9248 5.9023 16.1307 3.05198 14.6984 1.76278L14.6992 1.76203C12.3875 -0.439564 4.58038 -0.765422 1.81471 1.86091C0.57271 3.14562 0.135237 5.0311 0.0872948 7.36529C0.0393525 9.70022 -0.0175789 14.0742 4.05826 15.2608H4.06201L4.05826 17.0728C4.05826 17.0728 4.03055 17.807 4.49948 17.9545C5.03583 18.1283 5.27854 17.7875 6.94678 15.7949C9.73642 16.0368 11.8788 15.4825 12.1223 15.4016C12.6856 15.2128 15.873 14.7911 16.3884 10.4171ZM7.2217 14.5199C7.2217 14.5199 5.45608 16.7215 4.90699 17.2931C4.72721 17.4789 4.53019 17.4616 4.53319 17.0931C4.53319 16.8511 4.54667 14.0847 4.54667 14.0847C1.09109 13.0944 1.29484 9.36987 1.3323 7.42147C1.36975 5.47232 1.72632 3.87599 2.77805 2.80103C5.20438 0.526023 12.0489 1.03466 13.7928 2.67369C15.9247 4.56366 15.1659 9.90323 15.1704 10.0853C14.7322 13.7364 12.1493 13.9678 11.6743 14.1259C11.4713 14.1933 9.58735 14.678 7.2217 14.5199Z" fill="#9B9B9B"/>
<path d="M8.19824 3.22876C7.90983 3.22876 7.90983 3.67822 8.19824 3.68196C10.4358 3.69919 12.2786 5.25882 12.2988 8.11962C12.2988 8.42151 12.7408 8.41776 12.737 8.11587C12.713 5.03334 10.7002 3.24599 8.19824 3.22876Z" fill="#9B9B9B"/>
<path d="M11.1413 7.64599C11.1346 7.94413 11.5758 7.95837 11.5795 7.65648C11.6163 5.95678 10.5683 4.55671 8.59889 4.40914C8.31048 4.38817 8.28052 4.84137 8.56817 4.86235C10.2761 4.99194 11.1758 6.15754 11.1413 7.64599ZM10.6694 9.57941C10.2993 9.36517 9.92254 9.49851 9.76673 9.70901L9.44087 10.1308C9.27532 10.345 8.96594 10.3165 8.96594 10.3165C6.70816 9.7195 6.10439 7.35684 6.10439 7.35684C6.10439 7.35684 6.07667 7.03698 6.28343 6.86543L6.69093 6.52834C6.89469 6.36653 7.02353 5.977 6.81603 5.59421C6.2617 4.59267 5.8894 4.24734 5.69988 3.98216C5.50062 3.73271 5.20098 3.67652 4.88935 3.84507H4.88261C4.23464 4.22411 3.52525 4.93351 3.75222 5.66388C4.13951 6.43395 4.85115 8.88875 7.11942 10.7435C8.18538 11.6207 9.87235 12.5196 10.5885 12.7271L10.5952 12.7376C11.3009 12.9728 11.9871 12.2357 12.3534 11.5683V11.563C12.5159 11.2402 12.462 10.9345 12.2245 10.7345C11.8035 10.324 11.1683 9.87081 10.6694 9.57941Z" fill="#9B9B9B"/>
<path d="M8.90801 6.08064C9.62789 6.12259 9.97697 6.49863 10.0144 7.27095C10.0279 7.57284 10.4661 7.55186 10.4526 7.24998C10.4047 6.24169 9.87884 5.67987 8.93198 5.62743C8.64358 5.6102 8.61661 6.06341 8.90801 6.08064Z" fill="#9B9B9B"/>
</svg>
