<svg width="28" height="28" viewBox="0 0 28 28" fill="none" xmlns="http://www.w3.org/2000/svg">
<path d="M3.73633 23.4897V1.4375H24.4891V23.1966H7.43102C7.23852 23.1966 7.07445 23.3322 7.03945 23.5203C6.8907 24.3275 6.40289 26.3575 5.22164 26.3575C4.58508 26.3575 3.73633 25.5569 3.73633 23.4897Z" fill="white"/>
<path fill-rule="evenodd" clip-rule="evenodd" d="M6.5918 6.21758C6.5918 5.83098 6.9052 5.51758 7.2918 5.51758H20.6705C21.0571 5.51758 21.3705 5.83098 21.3705 6.21758C21.3705 6.60418 21.0571 6.91758 20.6705 6.91758H7.2918C6.9052 6.91758 6.5918 6.60418 6.5918 6.21758Z" fill="#B0BEC5"/>
<path fill-rule="evenodd" clip-rule="evenodd" d="M6.5918 9.4168C6.5918 9.0302 6.9052 8.7168 7.2918 8.7168H20.6705C21.0571 8.7168 21.3705 9.0302 21.3705 9.4168C21.3705 9.8034 21.0571 10.1168 20.6705 10.1168H7.2918C6.9052 10.1168 6.5918 9.8034 6.5918 9.4168Z" fill="#B0BEC5"/>
<path fill-rule="evenodd" clip-rule="evenodd" d="M6.5918 12.618C6.5918 12.2314 6.9052 11.918 7.2918 11.918H20.6705C21.0571 11.918 21.3705 12.2314 21.3705 12.618C21.3705 13.0046 21.0571 13.318 20.6705 13.318H7.2918C6.9052 13.318 6.5918 13.0046 6.5918 12.618Z" fill="#B0BEC5"/>
<path fill-rule="evenodd" clip-rule="evenodd" d="M6.5918 15.8152C6.5918 15.4286 6.9052 15.1152 7.2918 15.1152H20.6705C21.0571 15.1152 21.3705 15.4286 21.3705 15.8152C21.3705 16.2018 21.0571 16.5152 20.6705 16.5152H7.2918C6.9052 16.5152 6.5918 16.2018 6.5918 15.8152Z" fill="#B0BEC5"/>
<path fill-rule="evenodd" clip-rule="evenodd" d="M6.5918 19.0164C6.5918 18.6298 6.9052 18.3164 7.2918 18.3164H13.0121C13.3987 18.3164 13.7121 18.6298 13.7121 19.0164C13.7121 19.403 13.3987 19.7164 13.0121 19.7164H7.2918C6.9052 19.7164 6.5918 19.403 6.5918 19.0164Z" fill="#B0BEC5"/>
<path d="M26.4591 22.9644H24.8885V1.49406C24.8885 1.15281 24.6107 0.875 24.2694 0.875H3.73101C3.38976 0.875 3.11194 1.15281 3.11194 1.49406V23.2509C3.10976 24.3075 2.92163 27.125 6.23788 27.125H23.9238C26.4373 27.125 26.8004 24.4125 26.8463 23.3669C26.8573 23.1459 26.6801 22.9644 26.4591 22.9644ZM3.98913 23.2509V1.75219H24.0069V22.9622H7.38194C7.19382 22.9622 7.03413 23.0956 6.99913 23.2794C6.85476 24.0647 6.37788 26.0444 5.22726 26.0444C4.32382 26.0444 3.98913 25.2656 3.98913 23.2509Z" fill="#A4BDCC"/>
</svg>
