<svg width="19" height="19" viewBox="0 0 19 19" fill="none" xmlns="http://www.w3.org/2000/svg">
<path fill-rule="evenodd" clip-rule="evenodd" d="M15.9415 2.72484C14.1874 0.968642 11.8545 0.00102539 9.36914 0C4.24793 0 0.0799804 4.16783 0.0779297 9.29042C0.0772265 10.928 0.50499 12.5265 1.3181 13.9355L0 18.75L4.92542 17.4579C6.28257 18.1983 7.81048 18.5884 9.36536 18.5889H9.36928C14.4899 18.5889 18.6583 14.4207 18.6603 9.29786C18.6613 6.81518 17.6958 4.48096 15.9415 2.72484ZM9.36914 17.0197H9.36591C7.98029 17.0191 6.6213 16.6468 5.43545 15.9433L5.15361 15.7759L2.23078 16.5426L3.0109 13.6929L2.82721 13.4008C2.05418 12.1712 1.64596 10.7501 1.64666 9.29097C1.64827 5.0332 5.11262 1.5692 9.37224 1.5692C11.4349 1.56987 13.3739 2.37416 14.8319 3.83385C16.2898 5.29353 17.0923 7.23378 17.0916 9.29727C17.0898 13.5554 13.6257 17.0197 9.36914 17.0197ZM13.6051 11.236C13.373 11.1197 12.2315 10.5583 12.0187 10.4807C11.806 10.4032 11.6511 10.3646 11.4965 10.597C11.3416 10.8293 10.8968 11.3523 10.7613 11.5071C10.6258 11.6621 10.4905 11.6815 10.2583 11.5653C10.0261 11.4491 9.27814 11.2039 8.39135 10.413C7.70127 9.79737 7.23539 9.03714 7.09989 8.80485C6.96463 8.57229 7.09872 8.45877 7.20173 8.33103C7.45303 8.01896 7.70469 7.69177 7.78207 7.53694C7.85953 7.38196 7.82074 7.24637 7.76261 7.13021C7.70469 7.01405 7.24043 5.87135 7.04701 5.40638C6.85842 4.95389 6.66717 5.01498 6.52459 5.00792C6.38932 5.00115 6.23449 4.99977 6.07966 4.99977C5.92491 4.99977 5.67337 5.05778 5.46053 5.29034C5.24777 5.52278 4.64812 6.08434 4.64812 7.22704C4.64812 8.36973 5.47998 9.47361 5.59602 9.62856C5.71204 9.78354 7.2331 12.1284 9.56185 13.1339C10.1157 13.3733 10.5481 13.516 10.8854 13.623C11.4415 13.7997 11.9475 13.7748 12.3476 13.715C12.7936 13.6483 13.721 13.1534 13.9146 12.6111C14.108 12.0688 14.108 11.604 14.0499 11.5071C13.992 11.4103 13.8371 11.3523 13.6051 11.236Z" fill="#9B9B9B"/>
</svg>
